<svg height="512pt" viewBox="0 0 512 512" width="512pt" xmlns="http://www.w3.org/2000/svg"><path d="m256 0c-141.492188 0-256 114.496094-256 256 0 141.492188 114.496094 256 256 256 141.492188 0 256-114.496094 256-256 0-141.492188-114.496094-256-256-256zm0 481.882812c-124.550781 0-225.882812-101.332031-225.882812-225.882812s101.332031-225.882812 225.882812-225.882812 225.882812 101.332031 225.882812 225.882812-101.332031 225.882812-225.882812 225.882812zm0 0"/><path d="m256 53.207031c-111.820312 0-202.792969 90.972657-202.792969 202.792969s90.972657 202.792969 202.792969 202.792969 202.792969-90.972657 202.792969-202.792969-90.972657-202.792969-202.792969-202.792969zm0 375.46875c-95.214844 0-172.675781-77.460937-172.675781-172.675781s77.460937-172.675781 172.675781-172.675781 172.675781 77.460937 172.675781 172.675781-77.460937 172.675781-172.675781 172.675781zm0 0"/><path d="m303.269531 320.394531c-32.222656 13.613281-68.394531.976563-86.222656-26.761719h60.191406c8.316407 0 15.058594-6.746093 15.058594-15.0625 0-8.316406-6.742187-15.058593-15.058594-15.058593h-70.671875c-.523437-5.085938-.523437-9.988281.007813-15.042969h81.46875c8.316406 0 15.058593-6.742188 15.058593-15.058594s-6.742187-15.058594-15.058593-15.058594h-70.929688c16.085938-25.042968 48.238281-39.355468 80.625-28.828124 7.910157 2.574218 16.40625-1.753907 18.976563-9.664063 2.570312-7.910156-1.757813-16.40625-9.664063-18.976563-52.644531-17.109374-105.21875 11.601563-123.753906 57.46875h-12.316406c-8.316407 0-15.058594 6.742188-15.058594 15.058594s6.742187 15.058594 15.058594 15.058594h5.359375c-.390625 5.371094-.367188 10.027344.007812 15.042969h-5.367187c-8.316407 0-15.058594 6.742187-15.058594 15.058593 0 8.316407 6.742187 15.0625 15.058594 15.0625h12.425781c20.828125 51.257813 79.964844 76.3125 131.582031 54.503907 7.660157-3.238281 11.25-12.070313 8.011719-19.734375-3.234375-7.660156-12.074219-11.246094-19.730469-8.007813zm0 0"/></svg>