<?xml version="1.0" standalone="no"?>
<!DOCTYPE svg PUBLIC "-//W3C//DTD SVG 20010904//EN"
 "http://www.w3.org/TR/2001/REC-SVG-20010904/DTD/svg10.dtd">
<svg version="1.0" xmlns="http://www.w3.org/2000/svg"
 width="500.000000pt" height="500.000000pt" viewBox="0 0 500.000000 500.000000"
 preserveAspectRatio="xMidYMid meet">
<metadata>
Created by potrace 1.11, written by Peter Selinger 2001-2013
</metadata>
<g transform="translate(0.000000,500.000000) scale(0.100000,-0.100000)"
fill="#000000" stroke="none">
<path d="M2345 4809 c-82 -49 -157 -92 -165 -96 -8 -4 -33 -17 -54 -31 -22
-13 -58 -34 -80 -47 -23 -12 -70 -39 -106 -60 -36 -21 -76 -44 -90 -52 -14 -8
-46 -26 -71 -41 -147 -86 -603 -350 -630 -364 -17 -9 -59 -33 -93 -53 -72 -43
-52 -31 -251 -146 -88 -50 -176 -101 -195 -112 -19 -11 -48 -28 -65 -38 -16
-10 -39 -23 -50 -28 -11 -6 -33 -19 -49 -29 l-29 -20 1 -1164 c0 -639 1 -1182
1 -1205 1 -45 -9 -37 151 -128 55 -31 253 -145 270 -155 61 -37 168 -98 180
-103 8 -4 22 -11 30 -17 53 -34 152 -90 160 -90 6 0 10 -4 10 -10 0 -5 4 -10
10 -10 5 0 42 -19 82 -43 40 -24 80 -46 88 -50 8 -4 24 -13 35 -20 11 -7 54
-32 95 -56 41 -24 131 -76 200 -116 69 -40 141 -81 160 -92 19 -11 107 -62
195 -113 88 -51 180 -104 205 -118 25 -14 62 -36 82 -49 21 -12 40 -23 43 -23
3 0 23 -12 45 -26 l40 -27 118 68 c64 38 131 75 147 84 17 9 32 19 33 24 2 4
8 7 13 7 7 0 131 70 209 119 14 8 39 22 55 31 26 14 248 141 342 196 35 21
301 175 367 213 22 13 84 48 136 78 52 31 111 65 130 76 19 10 109 62 200 115
91 53 190 110 220 127 30 17 70 40 87 50 l33 20 0 1205 0 1205 -52 30 c-85 49
-139 80 -208 120 -36 21 -82 47 -102 59 -186 105 -314 181 -316 188 -2 4 -12
8 -22 8 -10 0 -21 4 -24 9 -5 7 -61 41 -221 131 -42 24 -137 79 -155 90 -15
10 -77 45 -161 92 -24 14 -111 64 -192 112 -82 47 -153 86 -158 86 -5 0 -9 5
-9 10 0 6 -4 10 -8 10 -5 0 -107 57 -228 126 -120 69 -223 128 -229 129 -5 2
-77 -37 -160 -86z"/>
</g>
</svg>
