<?xml version="1.0" standalone="no"?>
<!DOCTYPE svg PUBLIC "-//W3C//DTD SVG 20010904//EN"
 "http://www.w3.org/TR/2001/REC-SVG-20010904/DTD/svg10.dtd">
<svg version="1.0" xmlns="http://www.w3.org/2000/svg"
 width="111.000000pt" height="111.000000pt" viewBox="0 0 111.000000 111.000000"
 preserveAspectRatio="xMidYMid meet">
<metadata>
Created by potrace 1.11, written by Peter Selinger 2001-2013
</metadata>
<g transform="translate(0.000000,111.000000) scale(0.100000,-0.100000)"
fill="#000000" stroke="none">
<path d="M454 1086 c-15 -16 4 -43 27 -38 17 3 34 42 19 42 -5 0 -14 2 -22 5
-7 2 -18 -1 -24 -9z"/>
<path d="M567 1087 c-3 -8 -1 -20 4 -28 6 -10 9 -10 9 -1 0 6 7 12 16 12 20 0
13 24 -8 28 -9 2 -18 -3 -21 -11z"/>
<path d="M618 1076 c-4 -19 -1 -24 13 -23 32 2 36 47 5 47 -8 0 -16 -11 -18
-24z"/>
<path d="M670 1081 c0 -5 -3 -16 -6 -24 -3 -9 2 -16 14 -19 11 -3 19 0 19 8 0
7 -3 11 -7 9 -4 -2 -7 2 -7 9 0 8 7 12 15 8 10 -3 13 -1 8 6 -8 14 -36 16 -36
3z"/>
<path d="M715 1061 c-4 -12 -4 -25 -1 -28 3 -4 6 0 6 7 0 8 8 4 19 -9 16 -18
20 -19 25 -5 9 25 7 36 -6 31 -7 -2 -18 3 -24 11 -10 14 -12 13 -19 -7z"/>
<path d="M363 1063 c-15 -6 -17 -39 -3 -48 5 -3 18 -1 27 5 15 10 16 11 1 6
-9 -2 -19 1 -22 9 -3 8 0 13 7 11 7 -1 9 -1 4 1 -4 3 -5 9 -1 14 6 10 5 10
-13 2z"/>
<path d="M320 1037 c0 -14 -5 -17 -20 -12 -23 7 -25 2 -8 -24 10 -16 13 -17
26 -5 7 8 18 12 23 9 14 -9 11 9 -6 31 -13 18 -14 18 -15 1z"/>
<path d="M780 1030 c-6 -12 -9 -24 -7 -27 3 -2 11 5 17 17 6 12 9 24 7 27 -3
2 -11 -5 -17 -17z"/>
<path d="M800 1020 c-9 -17 -6 -23 22 -39 18 -11 38 -24 44 -30 8 -6 15 -6 23
2 16 16 13 30 -5 23 -11 -4 -15 -2 -11 8 9 23 -5 27 -26 9 -19 -17 -20 -17 -8
5 14 26 4 29 -16 5 -13 -16 -14 -16 -8 10 6 32 0 35 -15 7z"/>
<path d="M251 1007 c-14 -17 10 -54 28 -43 9 6 7 12 -6 23 -10 8 -12 12 -6 8
9 -4 11 -1 7 9 -7 19 -9 19 -23 3z"/>
<path d="M417 990 c-227 -81 -354 -295 -313 -530 11 -64 74 -176 129 -231 57
-57 163 -113 239 -127 136 -26 287 19 390 116 239 224 179 605 -119 748 -69
34 -87 38 -173 41 -77 3 -106 0 -153 -17z m290 -25 c175 -66 284 -224 285
-414 1 -233 -186 -429 -419 -437 -137 -5 -250 41 -341 140 -83 91 -124 202
-117 317 4 88 18 133 60 204 110 186 331 265 532 190z"/>
<path d="M523 897 c4 -10 1 -14 -7 -11 -7 3 -24 0 -38 -5 -30 -11 -53 -67 -43
-103 5 -21 5 -21 -9 2 -20 33 -20 17 0 -26 21 -44 70 -74 123 -74 51 0 91 18
70 31 -11 7 -10 9 4 9 24 0 21 12 -8 40 -18 17 -23 29 -19 47 8 32 -13 71 -50
90 -26 13 -28 13 -23 0z m-1 -74 c-4 -21 -2 -25 12 -20 13 5 15 3 7 -12 -6
-10 -9 -20 -8 -22 1 -2 0 -3 -2 -1 -6 3 -41 -30 -41 -39 0 -4 6 -9 13 -12 7
-2 6 -3 -3 -3 -9 1 -15 11 -15 26 -1 14 -4 37 -9 53 -9 31 6 57 34 57 13 0 16
-6 12 -27z m78 -106 c0 -4 -9 -3 -19 3 -11 5 -28 7 -38 4 -16 -6 -16 -5 2 8
15 12 23 13 37 4 10 -6 18 -14 18 -19z"/>
<path d="M581 901 c-10 -6 -4 -15 24 -37 34 -26 36 -31 31 -67 -5 -28 -3 -37
5 -31 8 5 10 2 7 -8 -4 -8 -3 -21 2 -28 14 -22 43 36 43 86 0 32 -6 51 -20 65
-22 23 -71 33 -92 20z m78 -70 c-2 -6 -10 2 -17 17 -11 25 -11 25 4 10 9 -9
15 -21 13 -27z m-2 -43 c-3 -8 -6 -5 -6 6 -1 11 2 17 5 13 3 -3 4 -12 1 -19z"/>
<path d="M239 618 c-4 -9 -5 -195 -1 -206 5 -14 60 -13 80 1 14 11 16 83 2 92
-6 4 -7 12 -3 18 11 17 11 49 2 75 -7 17 -16 22 -44 22 -19 0 -35 -1 -36 -2z
m54 -40 c6 -20 -4 -48 -17 -48 -7 0 -12 13 -11 30 0 30 19 42 28 18z m2 -114
c0 -18 -6 -30 -15 -32 -12 -2 -15 5 -14 30 2 42 2 40 17 36 6 -3 12 -18 12
-34z"/>
<path d="M357 613 c-4 -3 -7 -53 -7 -110 0 -79 3 -104 13 -101 6 3 13 21 15
41 5 53 32 50 32 -3 0 -29 4 -40 15 -40 12 0 15 17 15 94 0 52 -3 101 -6 110
-6 16 -64 23 -77 9z m53 -63 c0 -29 -4 -40 -15 -40 -11 0 -15 11 -15 40 0 29
4 40 15 40 11 0 15 -11 15 -40z"/>
<path d="M462 516 c0 -59 4 -109 9 -112 16 -10 21 2 22 48 l1 43 20 -47 c11
-27 26 -48 33 -48 17 0 17 0 -7 60 -19 48 -19 55 -5 103 18 61 18 57 0 57 -8
0 -17 -14 -21 -35 -8 -44 -20 -46 -19 -3 0 22 -5 34 -16 36 -14 3 -16 -11 -17
-102z"/>
<path d="M579 613 c-1 -5 -2 -52 -4 -105 -2 -88 0 -98 16 -103 23 -7 59 3 59
16 0 5 -10 9 -23 9 -20 0 -23 5 -22 33 1 21 7 33 18 35 23 5 22 32 -1 32 -29
0 -24 54 6 58 37 6 27 32 -13 32 -19 0 -35 -3 -36 -7z"/>
<path d="M668 613 c-2 -5 -3 -53 -3 -108 1 -81 4 -100 15 -100 10 0 16 12 17
39 3 54 10 56 23 4 7 -27 17 -45 26 -45 16 0 16 0 4 52 -5 21 -5 44 -1 50 12
17 13 86 0 101 -12 15 -75 20 -81 7z m58 -60 c4 -49 -23 -51 -28 -2 -3 31 0
39 11 37 8 -2 16 -16 17 -35z"/>
<path d="M770 614 c0 -3 7 -29 15 -57 8 -29 16 -74 18 -101 2 -27 8 -51 15
-54 7 -2 12 0 13 5 1 4 2 28 4 53 2 25 10 70 19 100 19 65 19 60 1 60 -9 0
-18 -12 -22 -30 -8 -43 -20 -45 -27 -5 -4 21 -13 35 -21 35 -8 0 -15 -3 -15
-6z"/>
<path d="M450 284 c0 -29 3 -33 22 -30 17 2 23 10 24 33 1 26 -2 31 -22 31
-21 0 -24 -5 -24 -34z m28 5 c10 -14 10 -18 -1 -22 -10 -4 -14 2 -14 19 0 14
0 24 1 22 1 -2 7 -10 14 -19z"/>
<path d="M510 285 c0 -19 2 -35 4 -35 2 0 6 16 8 35 2 19 0 35 -4 35 -4 0 -8
-16 -8 -35z"/>
<path d="M553 285 c-1 -46 11 -46 14 0 2 19 -1 35 -5 35 -4 0 -8 -16 -9 -35z"/>
<path d="M580 285 c0 -25 4 -35 13 -32 6 2 12 16 12 32 0 16 -6 30 -12 33 -9
2 -13 -8 -13 -33z m17 -12 c-3 -10 -5 -4 -5 12 0 17 2 24 5 18 2 -7 2 -21 0
-30z"/>
<path d="M621 292 c-1 -22 3 -31 10 -26 6 3 15 0 20 -7 6 -9 9 -2 9 24 0 25
-4 36 -11 32 -6 -4 -8 -13 -5 -21 3 -8 1 -14 -4 -14 -5 0 -11 10 -13 23 -3 15
-5 12 -6 -11z"/>
<path d="M390 280 c8 -5 20 -10 25 -10 6 0 3 5 -5 10 -8 5 -19 10 -25 10 -5 0
-3 -5 5 -10z"/>
<path d="M220 975 c0 -11 -5 -15 -15 -11 -12 4 -13 2 -2 -14 13 -22 28 -27 25
-7 -2 6 3 11 10 10 17 -4 15 12 -3 27 -12 10 -15 9 -15 -5z"/>
<path d="M167 943 c-4 -3 -7 -11 -7 -16 0 -6 3 -7 7 -4 3 4 12 2 20 -4 9 -9
13 -8 13 0 0 6 -5 11 -11 11 -5 0 -7 5 -4 10 7 11 -8 14 -18 3z"/>
<path d="M916 934 c-9 -23 -7 -36 3 -29 5 3 11 -1 13 -9 3 -13 6 -13 28 0 14
9 17 13 8 10 -12 -4 -15 -1 -11 11 5 13 2 15 -11 10 -14 -5 -17 -3 -12 8 3 8
1 15 -3 15 -5 0 -12 -7 -15 -16z"/>
<path d="M127 891 c-3 -13 1 -21 14 -24 22 -6 24 1 5 26 -13 17 -14 16 -19 -2z"/>
<path d="M959 874 c-10 -12 -9 -18 3 -31 19 -18 38 -10 38 17 0 24 -25 33 -41
14z m29 -15 c-2 -6 -8 -10 -13 -10 -5 0 -11 4 -13 10 -2 6 4 11 13 11 9 0 15
-5 13 -11z"/>
<path d="M93 851 c-9 -14 -7 -20 8 -29 23 -15 32 -15 24 -2 -3 6 -2 10 4 10
14 0 3 27 -13 33 -7 3 -17 -3 -23 -12z"/>
<path d="M994 825 c-12 -9 -14 -14 -6 -15 7 0 10 -5 7 -10 -9 -14 22 -60 39
-60 16 0 25 19 19 37 -3 8 -15 11 -31 7 -25 -5 -25 -4 -9 9 17 14 24 47 9 47
-5 0 -17 -7 -28 -15z m46 -65 c0 -5 -4 -10 -10 -10 -5 0 -10 5 -10 10 0 6 5
10 10 10 6 0 10 -4 10 -10z"/>
<path d="M65 810 c-9 -15 5 -32 21 -26 8 3 11 0 7 -10 -5 -15 -28 -19 -36 -6
-2 4 -2 1 -1 -5 2 -7 -2 -13 -9 -13 -17 0 14 -20 32 -20 8 0 11 3 8 7 -4 3 0
14 9 24 20 23 12 51 -12 42 -12 -4 -15 -3 -10 5 4 7 5 12 2 12 -3 0 -8 -4 -11
-10z"/>
<path d="M1041 729 c-23 -9 -23 -10 -5 -23 22 -16 46 -3 37 20 -3 8 -6 14 -7
13 0 0 -12 -5 -25 -10z"/>
<path d="M25 711 c-3 -5 4 -16 16 -24 l21 -15 -23 -4 c-30 -4 -31 -32 -1 -36
17 -3 22 2 23 20 1 13 1 27 0 32 -1 4 4 14 10 22 9 11 7 14 -14 14 -14 0 -28
-4 -32 -9z"/>
<path d="M1055 682 c-5 -4 -11 -14 -13 -23 -2 -12 4 -15 23 -11 16 3 25 11 25
23 0 19 -17 25 -35 11z"/>
<path d="M1060 633 c-21 -5 -15 -83 6 -83 8 0 14 6 14 13 0 8 4 7 10 -3 8 -13
10 -13 10 2 0 25 -17 31 -29 11 -9 -16 -10 -14 -11 9 0 15 5 30 12 34 6 4 8 3
5 -3 -3 -5 0 -10 7 -10 15 0 17 25 2 30 -6 2 -18 2 -26 0z"/>
<path d="M0 585 c0 -8 7 -15 15 -15 8 0 15 6 15 13 0 8 4 7 10 -3 8 -13 10
-12 10 3 0 12 -8 17 -25 17 -16 0 -25 -6 -25 -15z"/>
<path d="M20 543 c0 -15 -2 -16 -10 -3 -8 13 -10 12 -10 -2 0 -10 7 -18 15
-18 8 0 15 6 15 13 0 8 4 7 10 -3 8 -12 10 -11 10 8 0 13 -6 22 -15 22 -8 0
-15 -8 -15 -17z"/>
<path d="M1051 528 c-1 -20 15 -32 24 -18 4 6 11 8 16 5 5 -4 9 -2 9 4 0 16
-22 24 -30 11 -6 -10 -9 -9 -13 1 -4 10 -6 9 -6 -3z"/>
<path d="M0 505 c0 -23 17 -35 38 -28 16 6 19 12 12 23 -9 13 -10 13 -10 0 0
-13 -1 -13 -10 0 -9 13 -10 13 -10 0 0 -13 -1 -13 -10 0 -5 8 -10 11 -10 5z"/>
<path d="M1040 461 c0 -24 39 -36 47 -14 6 15 -12 33 -34 33 -7 0 -13 -8 -13
-19z"/>
<path d="M33 463 c-15 -3 -23 -12 -23 -24 0 -29 42 -21 46 9 2 12 3 21 1 21
-1 -1 -12 -4 -24 -6z"/>
<path d="M1033 423 c4 -3 2 -12 -4 -20 -9 -10 -6 -13 13 -13 33 0 41 10 20 26
-17 14 -41 19 -29 7z"/>
<path d="M26 402 c-10 -16 11 -34 33 -27 18 5 19 8 7 21 -16 16 -32 18 -40 6z"/>
<path d="M1018 373 c10 -4 9 -9 -5 -20 -10 -8 -12 -12 -5 -8 7 4 19 2 26 -4
10 -9 15 -7 20 5 7 19 -9 34 -34 33 -11 0 -11 -2 -2 -6z"/>
<path d="M53 362 c-7 -4 -10 -17 -7 -29 5 -19 9 -20 30 -11 19 9 21 14 13 29
-11 21 -18 23 -36 11z m27 -10 c0 -13 -12 -22 -22 -16 -10 6 -1 24 13 24 5 0
9 -4 9 -8z"/>
<path d="M980 311 c-7 -15 -6 -23 6 -35 8 -9 12 -16 7 -16 -5 0 -14 5 -21 12
-9 9 -12 9 -12 0 0 -14 37 -35 43 -25 3 5 5 21 5 37 0 19 -3 24 -9 15 -4 -7
-11 -11 -14 -8 -3 4 1 12 10 19 12 10 16 9 23 -10 8 -21 9 -22 16 -5 13 34
-36 48 -54 16z"/>
<path d="M83 313 c-18 -7 -16 -43 2 -43 8 0 15 -9 15 -19 0 -27 19 -36 37 -18
19 19 9 37 -20 37 -18 0 -19 2 -7 11 11 8 12 12 2 16 -6 2 -10 9 -6 14 6 10
-3 11 -23 2z m52 -63 c3 -5 -1 -10 -9 -10 -9 0 -16 5 -16 10 0 6 4 10 9 10 6
0 13 -4 16 -10z"/>
<path d="M940 241 c0 -4 7 -16 15 -27 13 -18 14 -18 15 -1 0 11 4 15 12 11 6
-4 8 -3 5 3 -8 13 -47 24 -47 14z"/>
<path d="M140 215 c-20 -11 -21 -14 -7 -15 10 0 15 -4 12 -10 -3 -5 1 -10 10
-10 9 0 13 -4 10 -10 -3 -5 -2 -10 3 -10 10 0 22 23 22 42 0 7 -5 6 -14 -1
-12 -10 -13 -8 -9 8 6 25 6 25 -27 6z"/>
<path d="M903 182 c22 -25 9 -37 -15 -15 -15 14 -19 14 -16 3 2 -8 -3 -14 -9
-12 -18 3 -16 -13 2 -28 12 -10 15 -9 15 4 0 10 5 14 11 11 5 -4 19 1 30 10
18 17 18 19 1 31 -25 20 -38 17 -19 -4z"/>
<path d="M211 157 c-16 -16 -14 -37 4 -31 10 4 15 0 15 -11 0 -15 2 -16 17 -4
15 12 16 12 10 -3 -3 -10 -2 -18 3 -18 6 0 10 5 10 10 0 6 5 10 11 10 6 0 8
-9 4 -22 -7 -22 -6 -22 11 -6 14 14 15 20 5 32 -7 8 -20 12 -28 9 -11 -4 -14
-2 -9 5 4 7 3 12 -3 12 -5 0 -16 6 -24 14 -11 11 -17 12 -26 3z"/>
<path d="M821 141 c-12 -7 -11 -12 1 -29 19 -29 45 -14 29 17 -13 24 -12 23
-30 12z m24 -29 c-3 -3 -11 0 -18 7 -9 10 -8 11 6 5 10 -3 15 -9 12 -12z"/>
<path d="M790 109 c0 -5 -4 -8 -8 -5 -14 9 -33 -10 -26 -27 8 -21 24 -22 24
-3 0 9 7 12 21 9 19 -5 20 -4 10 16 -13 23 -21 27 -21 10z"/>
<path d="M310 81 c-6 -12 -7 -21 -1 -21 10 0 24 30 17 37 -2 3 -9 -5 -16 -16z"/>
<path d="M337 87 c-4 -10 -7 -26 -7 -34 0 -13 3 -13 15 -3 12 10 15 10 15 -4
0 -21 16 -21 24 0 9 25 7 41 -4 24 -7 -11 -10 -11 -10 -2 0 7 -4 11 -9 7 -5
-3 -11 3 -13 12 -3 17 -4 17 -11 0z"/>
<path d="M720 90 c-11 -7 -11 -10 -2 -10 7 0 10 -4 7 -10 -3 -5 0 -10 7 -10 9
0 9 -3 -2 -10 -10 -7 -11 -10 -2 -10 17 0 26 25 15 44 -6 10 -13 12 -23 6z"/>
<path d="M415 60 c16 -7 17 -9 3 -9 -24 -1 -33 -20 -13 -28 10 -3 21 0 26 8
15 24 10 39 -13 38 -22 0 -22 -1 -3 -9z"/>
<path d="M615 61 c-22 -7 -30 -41 -10 -41 7 0 15 -5 17 -10 2 -6 8 -2 14 7 16
26 4 51 -21 44z"/>
<path d="M446 37 c-6 -22 22 -36 35 -16 14 22 10 35 -10 35 -11 0 -22 -9 -25
-19z"/>
<path d="M504 35 c-16 -13 -17 -16 -4 -25 22 -14 27 -12 33 10 7 26 -6 33 -29
15z"/>
</g>
</svg>
