<?xml version="1.0" encoding="utf-8"?>
<!-- Generator: Adobe Illustrator 24.1.1, SVG Export Plug-In . SVG Version: 6.00 Build 0)  -->
<svg version="1.1" id="Layer_1" xmlns="http://www.w3.org/2000/svg" xmlns:xlink="http://www.w3.org/1999/xlink" x="0px" y="0px"
	 viewBox="0 0 1088 488" style="enable-background:new 0 0 1088 488;" xml:space="preserve">
<style type="text/css">
	.st0{fill:#FFFFFF;}
	.st1{fill:#418C9F;}
	.st2{fill:#D98A3F;}
	.st3{fill:#FF0000;}
	.st4{fill:none;stroke:#FFFFFF;stroke-width:6.4;stroke-miterlimit:10;}
</style>
<path class="st0" d="M20.9,92.7c-0.3,0-0.5-0.2-0.5-0.5v-2.6c0-1.1,0.2-1.6,1.1-2.1c0.7-0.4,5.4-3.1,7.6-4.1v-4.1
	c-0.7-0.5-1.1-1.3-1.1-2.4v-3.3c0-2.7,1.6-4.9,4.9-4.9c3.3,0,4.9,2.2,4.9,4.9v3.3c0,1.2-0.4,1.9-1.1,2.4v4.1c2.4,1,6.9,3.7,7.6,4.1
	c0.9,0.5,1.1,1,1.1,2.1v2.6c0,0.3-0.2,0.5-0.5,0.5H20.9L20.9,92.7z"/>
<path class="st1" d="M110.9,93.7c-0.3,0-0.5-0.2-0.5-0.5v-2.6c0-1.1,0.2-1.6,1.1-2.1c0.7-0.4,5.4-3.1,7.6-4.1v-4.1
	c-0.7-0.5-1.1-1.3-1.1-2.4v-3.3c0-2.7,1.6-4.9,4.9-4.9c3.3,0,4.9,2.2,4.9,4.9v3.3c0,1.2-0.4,1.9-1.1,2.4v4.1c2.4,1,6.9,3.7,7.6,4.1
	c0.9,0.5,1.1,1,1.1,2.1v2.6c0,0.3-0.2,0.5-0.5,0.5H110.9L110.9,93.7z"/>
<path class="st0" d="M77.7,91.2c0-0.2,0-0.4,0.1-0.5h-1.1c-0.5,0-0.9-0.5-1-1l-4.5-18.8h-1.8c-0.6,0-1-0.5-1-1c0-0.6,0.5-1,1-1H72
	c0.5,0,0.9,0.3,1,0.8l0.8,3.4h20.1c0.3,0,0.6,0.1,0.8,0.4c0.1,0.2,0.2,0.4,0.2,0.7c0,0.1,0,0.2,0,0.2l-2.1,9.4
	c-0.1,0.5-0.5,0.8-1,0.8H76.5l1,4.2h12.7c0.6,0,1,0.5,1,1c0,0.6-0.5,1-1,1h-1.1c0.1,0.2,0.1,0.3,0.1,0.5c0,0.9-0.7,1.6-1.6,1.6
	c-0.9,0-1.6-0.7-1.6-1.6c0-0.2,0-0.4,0.1-0.5h-5.4c0.1,0.2,0.1,0.3,0.1,0.5c0,0.9-0.7,1.6-1.6,1.6C78.4,92.7,77.7,92,77.7,91.2z
	 M75.6,76v-1h-1.3l0.2,1H75.6z M75.6,78.1v-1h-0.8l0.2,1H75.6z M75.6,80.2v-1h-0.4l0.2,1H75.6z M77.7,76v-1h-1v1H77.7z M77.7,78.1
	v-1h-1v1H77.7z M77.7,80.2v-1h-1v1H77.7z M77.7,82.3v-1h-1v1H77.7z M79.8,76v-1h-1v1H79.8z M79.8,78.1v-1h-1v1H79.8z M79.8,80.2v-1
	h-1v1H79.8z M79.8,82.3v-1h-1v1H79.8z M81.9,76v-1h-1v1H81.9z M81.9,78.1v-0.7h-1v0.7H81.9z M81.9,80.2v-1h-1v1H81.9z M81.9,82.3v-1
	h-1v1H81.9z M84,76v-1h-1v1H84z M84,78.1v-1h-1v1H84z M84,80.2v-1h-1v1H84z M84,82.3v-1h-1v1H84z M86,76v-1h-1v1H86z M86,78.1v-1h-1
	v1H86z M86,80.2v-1h-1v1H86z M86,82.3v-1h-1v1H86z M88.1,76v-1h-1v1H88.1z M88.1,78.1v-1h-1v1H88.1z M88.1,80.2v-1h-1v1H88.1z
	 M88.1,82.3v-1h-1v1H88.1z M90.2,76v-1h-1v1H90.2z M90.2,78.1v-1h-1v1H90.2z M90.2,80.2v-1h-1v1H90.2z M90.2,82.3v-1h-1v1H90.2z
	 M92.3,76l0.2-1h-1.3v1H92.3z M91.9,78.1l0.2-1h-0.8v1H91.9z M91.4,80.2l0.2-1h-0.4v1H91.4z"/>
<path class="st1" d="M157.7,92.2c0-0.2,0-0.4,0.1-0.5h-1.1c-0.5,0-0.9-0.5-1-1l-4.5-18.8h-1.8c-0.6,0-1-0.5-1-1c0-0.6,0.5-1,1-1h2.6
	c0.5,0,0.9,0.3,1,0.8l0.8,3.4h20.1c0.3,0,0.6,0.1,0.8,0.4c0.1,0.2,0.2,0.4,0.2,0.7c0,0.1,0,0.2,0,0.2l-2.1,9.4
	c-0.1,0.5-0.5,0.8-1,0.8h-15.3l1,4.2h12.7c0.6,0,1,0.5,1,1c0,0.6-0.5,1-1,1h-1.1c0.1,0.2,0.1,0.3,0.1,0.5c0,0.9-0.7,1.6-1.6,1.6
	c-0.9,0-1.6-0.7-1.6-1.6c0-0.2,0-0.4,0.1-0.5h-5.4c0.1,0.2,0.1,0.3,0.1,0.5c0,0.9-0.7,1.6-1.6,1.6C158.4,93.7,157.7,93,157.7,92.2z
	 M155.6,77v-1h-1.3l0.2,1H155.6z M155.6,79.1v-1h-0.8l0.2,1H155.6z M155.6,81.2v-1h-0.4l0.2,1H155.6z M157.7,77v-1h-1v1H157.7z
	 M157.7,79.1v-1h-1v1H157.7z M157.7,81.2v-1h-1v1H157.7z M157.7,83.3v-1h-1v1H157.7z M159.8,77v-1h-1v1H159.8z M159.8,79.1v-1h-1v1
	H159.8z M159.8,81.2v-1h-1v1H159.8z M159.8,83.3v-1h-1v1H159.8z M161.9,77v-1h-1v1H161.9z M161.9,79.1v-0.7h-1v0.7H161.9z
	 M161.9,81.2v-1h-1v1H161.9z M161.9,83.3v-1h-1v1H161.9z M164,77v-1h-1v1H164z M164,79.1v-1h-1v1H164z M164,81.2v-1h-1v1H164z
	 M164,83.3v-1h-1v1H164z M166,77v-1h-1v1H166z M166,79.1v-1h-1v1H166z M166,81.2v-1h-1v1H166z M166,83.3v-1h-1v1H166z M168.1,77v-1
	h-1v1H168.1z M168.1,79.1v-1h-1v1H168.1z M168.1,81.2v-1h-1v1H168.1z M168.1,83.3v-1h-1v1H168.1z M170.2,77v-1h-1v1H170.2z
	 M170.2,79.1v-1h-1v1H170.2z M170.2,81.2v-1h-1v1H170.2z M170.2,83.3v-1h-1v1H170.2z M172.3,77l0.2-1h-1.3v1H172.3z M171.9,79.1
	l0.2-1h-0.8v1H171.9z M171.4,81.2l0.2-1h-0.4v1H171.4z"/>
<path class="st2" d="M188.9,93.7c-0.3,0-0.5-0.2-0.5-0.5v-2.6c0-1.1,0.2-1.6,1.1-2.1c0.7-0.4,5.4-3.1,7.6-4.1v-4.1
	c-0.7-0.5-1.1-1.3-1.1-2.4v-3.3c0-2.7,1.6-4.9,4.9-4.9c3.3,0,4.9,2.2,4.9,4.9v3.3c0,1.2-0.4,1.9-1.1,2.4v4.1c2.4,1,6.9,3.7,7.6,4.1
	c0.9,0.5,1.1,1,1.1,2.1v2.6c0,0.3-0.2,0.5-0.5,0.5H188.9L188.9,93.7z"/>
<path class="st2" d="M235.7,92.2c0-0.2,0-0.4,0.1-0.5h-1.1c-0.5,0-0.9-0.5-1-1l-4.5-18.8h-1.8c-0.6,0-1-0.5-1-1c0-0.6,0.5-1,1-1h2.6
	c0.5,0,0.9,0.3,1,0.8l0.8,3.4h20.1c0.3,0,0.6,0.1,0.8,0.4c0.1,0.2,0.2,0.4,0.2,0.7c0,0.1,0,0.2,0,0.2l-2.1,9.4
	c-0.1,0.5-0.5,0.8-1,0.8h-15.3l1,4.2h12.7c0.6,0,1,0.5,1,1c0,0.6-0.5,1-1,1h-1.1c0.1,0.2,0.1,0.3,0.1,0.5c0,0.9-0.7,1.6-1.6,1.6
	c-0.9,0-1.6-0.7-1.6-1.6c0-0.2,0-0.4,0.1-0.5h-5.4c0.1,0.2,0.1,0.3,0.1,0.5c0,0.9-0.7,1.6-1.6,1.6C236.4,93.7,235.7,93,235.7,92.2z
	 M233.6,77v-1h-1.3l0.2,1H233.6z M233.6,79.1v-1h-0.8l0.2,1H233.6z M233.6,81.2v-1h-0.4l0.2,1H233.6z M235.7,77v-1h-1v1H235.7z
	 M235.7,79.1v-1h-1v1H235.7z M235.7,81.2v-1h-1v1H235.7z M235.7,83.3v-1h-1v1H235.7z M237.8,77v-1h-1v1H237.8z M237.8,79.1v-1h-1v1
	H237.8z M237.8,81.2v-1h-1v1H237.8z M237.8,83.3v-1h-1v1H237.8z M239.9,77v-1h-1v1H239.9z M239.9,79.1v-0.7h-1v0.7H239.9z
	 M239.9,81.2v-1h-1v1H239.9z M239.9,83.3v-1h-1v1H239.9z M242,77v-1h-1v1H242z M242,79.1v-1h-1v1H242z M242,81.2v-1h-1v1H242z
	 M242,83.3v-1h-1v1H242z M244,77v-1h-1v1H244z M244,79.1v-1h-1v1H244z M244,81.2v-1h-1v1H244z M244,83.3v-1h-1v1H244z M246.1,77v-1
	h-1v1H246.1z M246.1,79.1v-1h-1v1H246.1z M246.1,81.2v-1h-1v1H246.1z M246.1,83.3v-1h-1v1H246.1z M248.2,77v-1h-1v1H248.2z
	 M248.2,79.1v-1h-1v1H248.2z M248.2,81.2v-1h-1v1H248.2z M248.2,83.3v-1h-1v1H248.2z M250.3,77l0.2-1h-1.3v1H250.3z M249.9,79.1
	l0.2-1h-0.8v1H249.9z M249.4,81.2l0.2-1h-0.4v1H249.4z"/>
<path class="st0" d="M297.3,316h-11.9l37.4-37.3l0,0.1l10.5,10.4V280h9v18.1l18,17.9h-12v33h-18v-18h-15v18h-18V316z"/>
<path class="st0" d="M432.9,314.2l8.7,26.5l-23-16.5l-22.9,16.6l8.7-26.5L381.1,298h28.7l8.8-27h0.1l8.8,27h28.3L432.9,314.2z
	 M395.6,341l0.1-0.1L395.6,341L395.6,341z"/>
<path class="st0" d="M499.3,305.5L476,289.1h28.7l8.8-27h0.1l8.8,27h28.3l-22.9,16.2l8.7,26.5l-23-16.5L490.6,332L499.3,305.5z
	 M490.6,332L490.6,332l-0.1,0.1L490.6,332z M520.8,303l11.4-7.9h-14l-3.1-9.4l0,0v23.3l10.1,7.4L520.8,303z"/>
<path class="st3" d="M613.7,297.2l8.7,26.5l-23-16.5l-22.9,16.6l8.7-26.5L562,281h28.7l8.8-27h0.1l8.8,27h28.3L613.7,297.2z
	 M576.4,323.9l0.1-0.1L576.4,323.9L576.4,323.9z M611.1,308.3l-4.4-13.4L618,287h-14l-4.5-13.8L595,287h-14.4l11.6,8l-4.4,13.1
	l11.5-8.3L611.1,308.3z"/>
<path class="st0" d="M22.4,195.5l24-24l8.4,8.4l-15.6,15.6l15.6,15.6l-8.4,8.4L22.4,195.5z"/>
<path class="st0" d="M211.6,179.3l24,24l-8.4,8.4l-15.6-15.6L196,211.7l-8.4-8.4L211.6,179.3z"/>
<path class="st0" d="M81,211.1l15.6-15.6L81,179.9l8.4-8.4l24,24l-24,24L81,211.1z"/>
<path class="st0" d="M138.6,179.3l15.6,15.6l15.6-15.6l8.4,8.4l-24,24l-24-24L138.6,179.3z"/>
<path class="st2" d="M263.9,204.5l-7.7-7.7l-7.7,7.7l-4.1-4.1l11.8-11.8l11.8,11.8L263.9,204.5z"/>
<path class="st2" d="M279.5,188.5l7.7,7.7l7.7-7.7l4.1,4.1l-11.8,11.8l-11.8-11.8L279.5,188.5z"/>
<path class="st1" d="M35.9,128.5C35.9,128.4,35.9,128.4,35.9,128.5c-0.7-0.5-1.6-0.7-2.7-0.6c0.2-0.6,0.3-1.2,0.3-1.8v-2.6
	c0.1,0,0.1,0.1,0.2,0.1c0.3,0.4,0.7,0.7,1.3,0.7c0.7-0.1,1.3-0.7,1.2-1.5l-0.2-2.2c-0.1-0.7-0.5-5.4-1.2-5.3
	c-0.7,0.1-0.5,4.8-0.4,5.6l0,0l-1.1-0.7c-0.8-2.3-3.2-3.5-6-3.5c-2.9,0-5.3,1.2-6,3.6l-1,0.7l0,0c0.1-0.7,0.3-5.5-0.4-5.6
	c-0.7-0.1-1.2,4.6-1.2,5.3l-0.2,2.2c-0.1,0.7,0.5,1.4,1.2,1.5c0.5,0,1-0.2,1.3-0.7c0,0,0.1,0,0.1,0v2.6c0,0.8,0.1,1.5,0.4,2.2
	c-1-0.3-1.9-0.3-2.6,0.1c0,0-0.1,0-0.1,0c-1.2,0.4-1.4,3.1-0.5,6.1c1,3,2.7,5,3.9,4.6c1.2-0.4,1.4-3,0.5-5.9c0,0,0,0,0.1,0
	c0.9,2.2,2.6,3.7,4.5,3.7c1.8,0,3.5-1.4,4.4-3.5c-0.9,2.8-0.8,5.3,0.4,5.7c1.2,0.4,3-1.6,4.1-4.5C37.2,131.6,37.1,128.9,35.9,128.5z
	"/>
<g>
	<path class="st1" d="M67.9,123.5h-5.1c0.5,0,0.8-0.4,0.8-0.8s-0.4-0.8-0.8-0.8h-2.1c-0.5,0-0.8,0.4-0.8,0.8s0.4,0.8,0.8,0.8h-5.1
		c-1.4,0-2.6,1.3-2.8,2.6h18C70.5,124.7,69.4,123.5,67.9,123.5z"/>
	<path class="st1" d="M70.8,127.5v-0.2H52.7h0h-3v1.2h3v7.4c0,1.6,1.3,2.9,2.9,2.9h12.4c1.6,0,2.9-1.3,2.9-2.9v-7.2h2.9v-1.2H70.8z"
		/>
	<path class="st1" d="M57.4,117.7c0.1,0.1,0.2,0.2,0.3,0.3l0.2,0.2c0.1,0.1,0.3,0.3,0.4,0.4c0.1,0.1,0.1,0.1,0.1,0.2
		c0,0.1,0.1,0.1,0.1,0.2c0,0.1,0,0.1-0.1,0.2c-0.1,0.1-0.2,0.2-0.3,0.3c0.1,0,0.3,0.1,0.4,0c0.1,0,0.3-0.1,0.4-0.2
		c0.1-0.1,0.2-0.3,0.2-0.5c0-0.2,0-0.3-0.1-0.5c-0.1-0.3-0.2-0.5-0.4-0.8c-0.1-0.1-0.2-0.2-0.2-0.3c-0.1-0.1-0.1-0.2-0.2-0.2
		c-0.2-0.3-0.4-0.6-0.4-0.9c-0.1-0.3,0-0.8,0.2-1.3c-0.5,0.1-1,0.5-1.1,1.2c-0.1,0.3-0.1,0.6,0,0.9C57,117.2,57.2,117.5,57.4,117.7z
		"/>
	<path class="st1" d="M60.5,117.7c0.1,0.1,0.2,0.2,0.3,0.3l0.2,0.2c0.1,0.1,0.3,0.3,0.4,0.4c0.1,0.1,0.1,0.1,0.1,0.2
		c0,0.1,0.1,0.1,0.1,0.2c0,0.1,0,0.1-0.1,0.2c-0.1,0.1-0.2,0.2-0.3,0.3c0.1,0,0.3,0.1,0.4,0c0.1,0,0.3-0.1,0.4-0.2
		c0.1-0.1,0.2-0.3,0.2-0.5c0-0.2,0-0.3-0.1-0.5c-0.1-0.3-0.2-0.5-0.4-0.8c-0.1-0.1-0.2-0.2-0.2-0.3c-0.1-0.1-0.1-0.2-0.2-0.2
		c-0.2-0.3-0.4-0.6-0.4-0.9c-0.1-0.3,0-0.8,0.2-1.3c-0.5,0.1-1,0.5-1.1,1.2c-0.1,0.3-0.1,0.6,0,0.9
		C60.2,117.2,60.3,117.5,60.5,117.7z"/>
	<path class="st1" d="M63.3,117.7c0.1,0.1,0.2,0.2,0.3,0.3l0.2,0.2c0.1,0.1,0.3,0.3,0.4,0.4c0.1,0.1,0.1,0.1,0.1,0.2
		c0,0.1,0.1,0.1,0.1,0.2c0,0.1,0,0.1-0.1,0.2c-0.1,0.1-0.2,0.2-0.3,0.3c0.1,0,0.3,0.1,0.4,0c0.1,0,0.3-0.1,0.4-0.2
		c0.1-0.1,0.2-0.3,0.2-0.5c0-0.2,0-0.3-0.1-0.5c-0.1-0.3-0.2-0.5-0.4-0.8c-0.1-0.1-0.2-0.2-0.2-0.3c-0.1-0.1-0.1-0.2-0.2-0.2
		c-0.2-0.3-0.4-0.6-0.4-0.9c-0.1-0.3,0-0.8,0.2-1.3c-0.5,0.1-1,0.5-1.1,1.2c-0.1,0.3-0.1,0.6,0,0.9C63,117.2,63.1,117.5,63.3,117.7z
		"/>
</g>
<g>
	<path class="st1" d="M93.4,123.2c-4.8,2.1-7.9,6.6-7.9,6.6c0,0,2.4,2.7,4.3,2l0.1,0.5c-0.2,0.1-0.5,0.1-0.7,0.1
		c-1.3,0-2.7-1.1-3.5-1.8c1,1.3,3.8,4.4,7.4,6.1C95.7,132.2,93.8,124.7,93.4,123.2z M90.5,130.2c-0.7,0-1.2-0.5-1.2-1.2
		c0-0.7,0.5-1.2,1.2-1.2c0.7,0,1.2,0.5,1.2,1.2C91.7,129.7,91.1,130.2,90.5,130.2z"/>
	<path class="st1" d="M108.8,128.3c-2.1-2.3-6.3-6.1-11.1-6.1c-1.3,0-2.6,0.3-3.8,0.8c0.4,1.4,2.5,9.1-0.3,14
		c1.3,0.6,2.7,0.9,4.2,0.9c5.1,0,9.5-4.3,11.4-6.5l3.9,2.2v-7.1L108.8,128.3z"/>
	<path class="st1" d="M99.3,116.6c0.2,0.3,0.5,0.6,0.8,0.8c0.3,0.3,0.5,0.5,0.7,0.8c0.2,0.3,0.3,0.6,0.3,0.9c0,0.3,0,0.6-0.2,0.9
		c-0.2,0.3-0.4,0.5-0.7,0.8l0,0c0.4-0.1,0.7-0.3,1-0.6c0.3-0.3,0.5-0.7,0.5-1.2c0-0.4-0.3-0.8-0.5-1.1c-0.3-0.3-0.6-0.5-0.9-0.7
		c-0.3-0.2-0.6-0.4-0.8-0.7c-0.2-0.3-0.3-0.7-0.3-1c0-0.2,0-0.3,0.1-0.4c0.1-0.1,0.1-0.3,0.2-0.4c0.2-0.3,0.4-0.5,0.7-0.8l0,0
		c-0.4,0.1-0.7,0.3-1,0.6c-0.3,0.3-0.5,0.7-0.4,1.1C98.8,116,99.1,116.4,99.3,116.6z"/>
	<path class="st1" d="M103.5,116.6c0.2,0.3,0.5,0.6,0.8,0.8c0.3,0.3,0.5,0.5,0.7,0.8c0.2,0.3,0.3,0.6,0.3,0.9c0,0.3-0.1,0.6-0.2,0.9
		c-0.2,0.3-0.4,0.5-0.7,0.8l0,0c0.4-0.1,0.7-0.3,1-0.6c0.3-0.3,0.5-0.7,0.5-1.2c0-0.4-0.3-0.8-0.5-1.1c-0.3-0.3-0.6-0.5-0.9-0.7
		c-0.3-0.2-0.6-0.4-0.8-0.7c-0.2-0.3-0.3-0.7-0.3-1c0-0.2,0-0.3,0.1-0.4c0.1-0.1,0.1-0.3,0.2-0.4c0.2-0.3,0.4-0.5,0.7-0.8l0,0
		c-0.4,0.1-0.7,0.3-1,0.6c-0.3,0.3-0.5,0.7-0.4,1.1C103,116,103.3,116.4,103.5,116.6z"/>
	<path class="st1" d="M94.7,116.6c0.2,0.3,0.5,0.6,0.8,0.8c0.3,0.3,0.5,0.5,0.7,0.8c0.2,0.3,0.3,0.6,0.3,0.9c0,0.3,0,0.6-0.2,0.9
		c-0.2,0.3-0.4,0.5-0.7,0.8l0,0c0.4-0.1,0.7-0.3,1-0.6c0.3-0.3,0.5-0.7,0.5-1.2c0-0.4-0.3-0.8-0.5-1.1c-0.3-0.3-0.6-0.5-0.9-0.7
		c-0.3-0.2-0.6-0.4-0.8-0.7c-0.2-0.3-0.3-0.7-0.3-1c0-0.2,0-0.3,0.1-0.4c0.1-0.1,0.1-0.3,0.2-0.4c0.2-0.3,0.4-0.5,0.7-0.8l0,0
		c-0.4,0.1-0.7,0.3-1,0.6c-0.3,0.3-0.5,0.7-0.4,1.1C94.2,116,94.4,116.4,94.7,116.6z"/>
</g>
<g>
	<path class="st1" d="M139.4,116.8c-6.6,0-12,5.4-12,12c0,6.6,5.4,12,12,12c6.6,0,12-5.4,12-12C151.4,122.2,146,116.8,139.4,116.8z
		 M139.9,138.8V137c0-0.3-0.2-0.5-0.5-0.5c-0.3,0-0.5,0.2-0.5,0.5v1.8c-5.1-0.3-9.2-4.4-9.5-9.5h1.7c0.3,0,0.5-0.2,0.5-0.5
		c0-0.3-0.2-0.5-0.5-0.5h-1.7c0.3-5.1,4.4-9.2,9.5-9.5c0,0,0,0,0,0v1.9c0,0.3,0.2,0.5,0.5,0.5c0.3,0,0.5-0.2,0.5-0.5v-1.9
		c0,0,0,0,0,0c5.1,0.3,9.2,4.4,9.5,9.5h-1.7c-0.3,0-0.5,0.2-0.5,0.5c0,0.3,0.2,0.5,0.5,0.5h1.7C149.1,134.4,145,138.5,139.9,138.8z"
		/>
	<path class="st1" d="M141.7,122.8c-0.5,0.5-0.8,1.4-0.7,2.2l-1.9,1.9c-0.3-0.3-0.8-0.2-1.1,0.1c-0.3,0.3-0.3,0.9,0,1.2
		c0.2,0.2,0.5,0.3,0.8,0.2v0.2c-0.2,0-0.5,0-0.6,0.2c-0.3,0.3-0.3,0.8,0,1.1c0.3,0.3,0.7,0.3,1,0.1l1.7,1.7
		c-0.1,0.7,0.2,1.5,0.6,1.9c0.6,0.6,1.7,0.6,2.3,0c0.6-0.6,0.6-1.7,0-2.3c-0.5-0.5-1.3-0.7-1.9-0.6l-1.5-1.5c0,0,0,0,0,0l0-0.9
		l1.9-1.9c0.7,0.1,1.6-0.2,2.2-0.7c0.7-0.7,0.7-1.9,0-2.6C143.6,122.1,142.4,122.1,141.7,122.8z M140.1,127.9l0.1,1.3l0.1-0.1
		c0,0,0,0,0,0.1c0,0,0,0,0,0l1.4,1.4c0,0-0.1,0-0.1,0c-0.1,0.1-0.3,0.1-0.4,0.2c-0.1,0.1-0.2,0.3-0.3,0.4c0,0,0,0,0,0.1l-1.6-1.6
		l0,0l-0.1-0.1c0,0-0.1,0.1-0.1,0.1c-0.2,0.2-0.6,0.2-0.8,0c-0.2-0.2-0.2-0.6,0-0.8c0.1-0.1,0.3-0.2,0.5-0.1c0,0,0,0,0,0
		c0,0,0.2,0,0.2,0v-0.6l0,0c0,0,0,0,0,0l0,0c-0.2,0.1-0.5,0.1-0.7-0.1c-0.2-0.2-0.2-0.6,0-0.9c0.2-0.2,0.6-0.2,0.9,0
		c0,0,0.1,0.1,0.1,0.1l0.1-0.2h0l1.8-1.8c0,0,0,0.1,0.1,0.1c0.1,0.1,0.2,0.3,0.3,0.4c0.1,0.1,0.3,0.2,0.5,0.3c0,0,0.1,0,0.1,0
		L140.1,127.9z"/>
</g>
<g>
	<path class="st1" d="M171.5,117.1c0.2,0,0.9,0,1.1,0c0.2,0,0.2-0.2,0.2-0.2v-1.1c0,0,0-0.2-0.2-0.2c-0.2,0-0.8,0-1,0
		c-0.3,0-0.2,0.2-0.2,0.2v1C171.3,116.9,171.3,117.1,171.5,117.1z"/>
	<path class="st1" d="M173.6,117.1c0.2,0,0.9,0,1.1,0c0.2,0,0.2-0.2,0.2-0.2v-1.1c0,0,0-0.2-0.2-0.2s-0.8,0-1,0
		c-0.3,0-0.2,0.2-0.2,0.2v1C173.4,116.9,173.4,117.1,173.6,117.1z"/>
	<path class="st1" d="M171.5,119c0.2,0,0.9,0,1.1,0c0.2,0,0.2-0.2,0.2-0.2v-1.1c0,0,0-0.2-0.2-0.2c-0.2,0-0.8,0-1,0
		c-0.3,0-0.2,0.2-0.2,0.2v1C171.3,118.7,171.3,119,171.5,119z"/>
	<path class="st1" d="M173.6,119c0.2,0,0.9,0,1.1,0c0.2,0,0.2-0.2,0.2-0.2v-1.1c0,0,0-0.2-0.2-0.2s-0.8,0-1,0
		c-0.3,0-0.2,0.2-0.2,0.2v1C173.4,118.7,173.4,119,173.6,119z"/>
	<path class="st1" d="M171.5,120.8c0.2,0,0.9,0,1.1,0c0.2,0,0.2-0.2,0.2-0.2v-1.1c0,0,0-0.2-0.2-0.2c-0.2,0-0.8,0-1,0
		c-0.3,0-0.2,0.2-0.2,0.2v1C171.3,120.6,171.3,120.8,171.5,120.8z"/>
	<path class="st1" d="M173.6,120.8c0.2,0,0.9,0,1.1,0c0.2,0,0.2-0.2,0.2-0.2v-1.1c0,0,0-0.2-0.2-0.2s-0.8,0-1,0
		c-0.3,0-0.2,0.2-0.2,0.2v1C173.4,120.6,173.4,120.8,173.6,120.8z"/>
	<path class="st1" d="M172.8,122.5v-1.1c0,0,0-0.2-0.2-0.2c-0.2,0-0.8,0-1,0c-0.3,0-0.2,0.2-0.2,0.2v1c0,0,0,0.1,0,0.1
		c0,0,0.1,0.1,0.1,0.1c0,0,0,0,0.1,0c0.2,0,0.9,0,1.1,0C172.8,122.7,172.8,122.5,172.8,122.5z"/>
	<path class="st1" d="M173.6,122.7c0.2,0,0.8,0,1,0c0.1-0.1,0.2-0.2,0.3-0.4v-0.9c0,0,0-0.2-0.2-0.2s-0.8,0-1,0
		c-0.3,0-0.2,0.2-0.2,0.2v1C173.4,122.4,173.4,122.7,173.6,122.7z"/>
	<path class="st1" d="M175.5,119c0.2,0,0.9,0,1.1,0c0.2,0,0.2-0.2,0.2-0.2v-1.1c0,0,0-0.2-0.2-0.2c-0.2,0-0.8,0-1,0
		c-0.3,0-0.2,0.2-0.2,0.2v1C175.4,118.7,175.3,119,175.5,119z"/>
	<path class="st1" d="M175.5,120.8c0.1,0,0.5,0,0.8,0c0.2-0.2,0.4-0.3,0.5-0.5v-0.8c0,0,0-0.2-0.2-0.2c-0.2,0-0.8,0-1,0
		c-0.3,0-0.2,0.2-0.2,0.2v1C175.4,120.6,175.3,120.8,175.5,120.8z"/>
	<path class="st1" d="M175.9,121.2c-0.1,0-0.2,0-0.3,0c-0.3,0-0.2,0.2-0.2,0.2v0.3C175.5,121.6,175.7,121.4,175.9,121.2z"/>
	<path class="st1" d="M169.5,119c0.2,0,0.9,0,1.1,0s0.2-0.2,0.2-0.2v-1.1c0,0,0-0.2-0.2-0.2c-0.2,0-0.8,0-1,0
		c-0.3,0-0.2,0.2-0.2,0.2v1C169.3,118.8,169.3,119,169.5,119z"/>
	<path class="st1" d="M170.8,120.7v-1.1c0,0,0-0.2-0.2-0.2c-0.2,0-0.8,0-1,0c-0.3,0-0.2,0.2-0.2,0.2v1c0,0,0,0,0,0
		c0.1,0.1,0.2,0.1,0.3,0.2c0.3,0,0.8,0,1,0C170.8,120.9,170.8,120.7,170.8,120.7z"/>
	<path class="st1" d="M170.6,121.2c-0.1,0-0.3,0-0.6,0c0.3,0.2,0.5,0.5,0.8,0.7v-0.5C170.8,121.4,170.8,121.2,170.6,121.2z"/>
	<path class="st1" d="M172.6,123.1c-0.2,0-0.6,0-0.8,0c0.4,0.5,0.7,1,0.9,1.5c0.1,0,0.1-0.2,0.1-0.2v-1.1
		C172.8,123.3,172.8,123.1,172.6,123.1z"/>
	<path class="st1" d="M173.5,124.5c0.2-0.5,0.5-1,0.8-1.5c-0.2,0-0.5,0-0.7,0c-0.3,0-0.2,0.2-0.2,0.2v1
		C173.4,124.3,173.4,124.5,173.5,124.5z"/>
	<path class="st1" d="M179.9,130.9c-0.4,1.8-1.1,3-1.9,3.9c0.6-1.3,0.5-2.4,0.5-2.4c-0.5,2.1-1.6,3.1-2.6,3.6
		c6-10.1,2.4-15.8,2.4-15.8c-0.5,0.3-1,0.6-1.5,1c-0.2,0.1-0.4,0.3-0.5,0.5c0,0,0,0,0,0c-0.2,0.2-0.4,0.3-0.4,0.4
		c-0.2,0.2-0.4,0.4-0.5,0.6c-0.2,0.2-0.3,0.4-0.5,0.6c-0.1,0.1-0.2,0.2-0.3,0.4c-0.1,0.1-0.2,0.3-0.3,0.4c-0.3,0.5-0.6,1-0.8,1.5
		c-0.1,0.3-0.3,0.6-0.4,0.9c-0.1-0.3-0.3-0.6-0.4-0.8c-0.3-0.5-0.6-1-0.9-1.5c-0.1-0.1-0.2-0.3-0.3-0.4c0,0-0.1-0.1-0.1-0.1
		c-0.2-0.2-0.4-0.4-0.6-0.6c-0.2-0.2-0.5-0.5-0.8-0.7c-0.1-0.1-0.3-0.2-0.4-0.4c-0.1-0.1-0.2-0.1-0.3-0.2c-0.5-0.4-1-0.7-1.6-1
		c0,0-3.3,5.8,3,15.5c-0.9-0.5-1.9-1.5-2.4-3.5c0,0-0.1,1.1,0.5,2.4c-0.8-0.9-1.5-2.1-1.9-3.9c0,0-0.6,5.6,6.5,8.8c0,0,0,0,0.1,0
		c0,0,0,0,0,0l0,0C180.5,136.4,179.9,130.9,179.9,130.9z"/>
</g>
<g>
	<path class="st0" d="M65.3,255.1c1.2,0,2.2,0.4,3,1.2c0.8,0.8,1.2,1.8,1.2,3v31.4c0,1.2-0.4,2.2-1.2,3c-0.8,0.8-1.8,1.2-3,1.2H53.1
		v-13.6h5.2l1-6.4h-6.2v-4.2c0-2.3,1.2-3.4,3.6-3.4h2.8v-5.4c-1.7-0.3-3.3-0.4-4.9-0.4c-1.7,0-3.2,0.3-4.4,1
		c-1.2,0.7-2.2,1.6-2.9,2.9c-0.7,1.3-1.1,2.9-1.1,4.6v4.9h-5.6v6.4h5.6v13.6H33.9c-1.2,0-2.2-0.4-3-1.2c-0.8-0.8-1.2-1.8-1.2-3
		v-31.4c0-1.2,0.4-2.2,1.2-3c0.8-0.8,1.8-1.2,3-1.2H65.3z"/>
</g>
<g>
	<path class="st0" d="M134,255.1c1.2,0,2.2,0.4,3,1.2c0.8,0.8,1.2,1.8,1.2,3v31.4c0,1.2-0.4,2.2-1.2,3c-0.8,0.8-1.8,1.2-3,1.2h-31.4
		c-1.2,0-2.2-0.4-3-1.2c-0.8-0.8-1.2-1.8-1.2-3v-31.4c0-1.2,0.4-2.2,1.2-3c0.8-0.8,1.8-1.2,3-1.2H134z M129.7,269.3
		c1.1-0.8,2.1-1.8,2.9-3c-1.1,0.5-2.3,0.8-3.4,0.9c1.3-0.8,2.1-1.8,2.6-3.2c-1.2,0.7-2.4,1.2-3.7,1.4c-1.1-1.2-2.5-1.9-4.2-1.9
		c-1.8,0-3.4,0.7-4.6,2.1c-1.2,1.4-1.6,3.1-1.2,5.1c-4.9-0.3-9-2.4-12.1-6.2c-0.5,0.9-0.8,1.9-0.8,2.9c0,0.6,0.1,1.2,0.4,1.8
		c0.2,0.6,0.6,1.2,1,1.7c0.4,0.5,0.9,1,1.3,1.3c-1-0.1-1.8-0.3-2.7-0.8v0.1c0,1.4,0.4,2.7,1.3,3.8c0.9,1.1,2,1.8,3.4,2.1
		c-0.8,0.2-1.7,0.2-2.7,0.1c0.4,1.2,1,2.2,2.1,2.9c1,0.7,2.1,1.1,3.4,1.1c-2.1,1.7-4.6,2.5-7.2,2.5c-0.5,0-1,0-1.4-0.1
		c2.7,1.8,5.7,2.7,9,2.7c3.4,0,6.4-0.9,9-2.6c2.6-1.7,4.5-3.8,5.8-6.3c1.2-2.5,1.8-5.1,1.8-7.8C129.7,269.8,129.7,269.5,129.7,269.3
		z"/>
</g>
<g>
	<g>
		<g>
			<path class="st0" d="M206.5,275.5c-0.4-1.8-1.9-3.1-3.6-3.3c-4.2-0.5-8.4-0.5-12.5-0.5c-4.2,0-8.4,0-12.5,0.5
				c-1.8,0.2-3.2,1.5-3.6,3.3c-0.6,2.5-0.6,5.3-0.6,7.9s0,5.4,0.6,7.9c0.4,1.8,1.9,3.1,3.6,3.3c4.2,0.5,8.4,0.5,12.5,0.5
				c4.2,0,8.4,0,12.5-0.5c1.8-0.2,3.2-1.5,3.6-3.3c0.6-2.5,0.6-5.3,0.6-7.9C207,280.9,207,278.1,206.5,275.5z M182.9,277.5h-2.2
				v12.7h-2.2v-12.7h-2.6v-2.2h7V277.5z M189.5,290.6h-2.2v-1.2c-0.8,0.9-1.6,1.4-2.4,1.4c-0.7,0-1.1-0.3-1.4-0.8
				c-0.1-0.3-0.2-0.9-0.2-1.7v-9h2.2v8.2c0,0.5,0,0.7,0,0.8c0,0.3,0.2,0.5,0.5,0.5c0.4,0,0.8-0.3,1.3-0.9v-8.5h2.2L189.5,290.6
				L189.5,290.6z M196.9,286.9c0,1-0.1,1.8-0.2,2.3c-0.3,0.8-0.8,1.3-1.6,1.3c-0.7,0-1.4-0.4-2.1-1.2v1h-2.2v-14.9h2.2v4.9
				c0.7-0.8,1.4-1.2,2.1-1.2c0.8,0,1.4,0.4,1.6,1.3c0.1,0.4,0.2,1.2,0.2,2.2V286.9z M204.4,285.4h-3.9v1.9c0,1,0.3,1.5,1,1.5
				c0.5,0,0.8-0.3,0.9-0.8c0-0.1,0-0.5,0-1.3h2v0.3c0,0.6,0,1.1,0,1.3c-0.1,0.4-0.2,0.8-0.5,1.2c-0.6,0.8-1.4,1.2-2.5,1.2
				c-1.1,0-1.9-0.4-2.5-1.1c-0.4-0.5-0.7-1.4-0.7-2.6v-3.8c0-1.2,0.2-2,0.6-2.6c0.6-0.7,1.4-1.1,2.5-1.1c1,0,1.8,0.4,2.4,1.1
				c0.4,0.6,0.6,1.4,0.6,2.6L204.4,285.4L204.4,285.4z"/>
			<path class="st0" d="M201.5,281c-0.7,0-1.1,0.5-1.1,1.6v1h2.2v-1C202.6,281.5,202.2,281,201.5,281z"/>
			<path class="st0" d="M193.9,281.2c-0.3,0-0.6,0.1-0.9,0.5v6.3c0.3,0.3,0.6,0.5,0.9,0.5c0.5,0,0.8-0.5,0.8-1.4v-4.4
				C194.7,281.7,194.5,281.2,193.9,281.2z"/>
			<path class="st0" d="M195,270.5c0.8,0,1.6-0.5,2.4-1.4v1.3h2.2v-11.4h-2.2v8.6c-0.4,0.6-0.9,1-1.3,1c-0.3,0-0.4-0.2-0.5-0.5
				c0-0.1,0-0.3,0-0.8v-8.3h-2.2v8.9c0,0.8,0.1,1.3,0.2,1.7C193.8,270.3,194.3,270.5,195,270.5z"/>
			<path class="st0" d="M180.7,264.3v6.2h2.2v-6.2l2.6-9.1h-2.2l-1.5,6l-1.6-6H178c0.5,1.4,0.9,2.8,1.4,4.3
				C180.1,261.5,180.5,263.2,180.7,264.3z"/>
			<path class="st0" d="M189,270.8c1,0,1.8-0.4,2.4-1.2c0.4-0.6,0.6-1.5,0.6-2.7v-4c0-1.2-0.2-2.1-0.6-2.7c-0.6-0.8-1.4-1.2-2.4-1.2
				c-1,0-1.8,0.4-2.4,1.2c-0.4,0.6-0.6,1.5-0.6,2.7v4c0,1.2,0.2,2.1,0.6,2.7C187.2,270.4,188,270.8,189,270.8z M188.2,262.6
				c-0.2-1,0.1-1.6,0.8-1.6s1,0.5,1,1.6v4.8c0,1-0.3,1.6-1,1.6s-1-0.5-0.8-1.6V262.6z"/>
		</g>
	</g>
</g>
<line class="st4" x1="213.7" y1="25.7" x2="242.3" y2="40.1"/>
<line class="st4" x1="227.7" y1="16.9" x2="228.3" y2="48.9"/>
<line class="st4" x1="289.1" y1="23.7" x2="262.9" y2="42"/>
<line class="st4" x1="275.7" y1="16.9" x2="276.3" y2="48.9"/>
<line class="st4" x1="309" y1="32.8" x2="341" y2="32.9"/>
<line class="st4" x1="325.1" y1="16.9" x2="324.9" y2="48.9"/>
<line class="st4" x1="383.4" y1="44.1" x2="360.6" y2="21.6"/>
<line class="st4" x1="163.5" y1="27.9" x2="194.5" y2="35.9"/>
<line class="st4" x1="163.6" y1="36.1" x2="194.4" y2="27.6"/>
<line class="st4" x1="163" y1="32" x2="195" y2="31.7"/>
<line class="st4" x1="114" y1="32" x2="146" y2="31.7"/>
<line class="st4" x1="65" y1="40" x2="97" y2="39.7"/>
<line class="st4" x1="65" y1="24" x2="97" y2="23.7"/>
<line class="st4" x1="65" y1="32" x2="97" y2="31.7"/>
<g>
	<line class="st4" x1="16.6" y1="19.4" x2="48.6" y2="19.1"/>
	<line class="st4" x1="16.6" y1="29.6" x2="48.6" y2="29.3"/>
	<line class="st4" x1="16.6" y1="39.8" x2="48.6" y2="39.5"/>
</g>
<line class="st4" x1="360.8" y1="44.3" x2="383.2" y2="21.5"/>
<g>
	<g>
		<g>
			<path class="st1" d="M192.4,125.4c0,5.4,4.4,9.9,9.9,9.9c5.4,0,9.9-4.4,9.9-9.9v-0.5h-19.8V125.4z M202.3,134.3
				c-3.9,0-7.2-2.5-8.4-6.1h16.9C209.5,131.8,206.2,134.3,202.3,134.3z M211.2,125.9c0,0.6-0.1,1.1-0.2,1.6h-17.3
				c-0.1-0.5-0.2-1.1-0.2-1.6H211.2z"/>
		</g>
	</g>
	<g>
		<g>
			<path class="st1" d="M210,135.3c-0.2-0.5-0.9-0.8-1.4-0.6c-0.6,0.2-0.8,0.9-0.6,1.4l2.1,4.7c0.2,0.5,0.9,0.8,1.4,0.6
				c0.5-0.2,0.8-0.9,0.6-1.4L210,135.3z"/>
		</g>
	</g>
	<g>
		<g>
			<path class="st1" d="M196.5,134.7c-0.5-0.2-1.2,0-1.4,0.6l-2.1,4.7c-0.2,0.5,0,1.2,0.6,1.4c0.6,0.2,1.2,0,1.4-0.6l2.1-4.7
				C197.3,135.6,197,134.9,196.5,134.7z"/>
		</g>
	</g>
	<g>
		<g>
			<path class="st1" d="M202.6,136.4c-0.5,0-1,0.4-1,1v4.7c0,0.5,0.4,1,1,1c0.5,0,1-0.4,1-1v-4.7
				C203.6,136.8,203.1,136.4,202.6,136.4z"/>
		</g>
	</g>
	<g>
		<g>
			<path class="st1" d="M206,121c0-0.1-0.1-0.3-0.1-0.4c-0.1-0.3-0.3-0.5-0.6-0.8h-0.1l0,1.2h-2.6v-0.5c0-0.1,0-0.3,0-0.4
				c-0.1-0.1-0.3-0.3-0.5-0.4c-0.2,0.1-0.3,0.3-0.5,0.4c0,0.2,0,0.3,0,0.4v0.5h-2.2c0-0.5-0.2-0.9-0.5-1.4c-0.3,0.5-0.4,0.9-0.5,1.4
				h-2v0.8h2c0,0.5,0.2,0.9,0.5,1.4c0.3-0.5,0.4-0.9,0.5-1.4h2.2v0.5v0.5c0.1,0.1,0.3,0.3,0.5,0.5c0.2-0.2,0.3-0.3,0.5-0.5v-0.5
				v-0.5h2.6l0,1.2h0.1c0.3-0.3,0.5-0.5,0.6-0.8c0.1-0.1,0.1-0.3,0.1-0.4h13.8V121H206z"/>
		</g>
	</g>
	<g>
		<g>
			<path class="st1" d="M200.8,118.3c0.2-1.3,0.4-2.6,1.1-3.3c0.3-0.4,1-0.6,1.6-0.5c0.6,0.1,1.2,0.4,1.7,0.7c0.5,0.4,1.1,0.7,1.8,1
				c0.6,0.2,1.4,0.4,2.2,0.1c0.4-0.2,0.7-0.5,0.9-0.9c0.2-0.4,0.2-0.8,0.2-1.1c0-0.7-0.2-1.4-0.5-2l-0.1,0c0,0.7,0,1.3-0.2,1.9
				c-0.1,0.6-0.4,1-0.8,1.1c-0.4,0.2-1,0.1-1.6,0c-0.6-0.2-1.2-0.3-1.8-0.6c-0.6-0.2-1.3-0.4-1.9-0.6c-0.6-0.1-1.4-0.3-2.1,0.2
				c-0.7,0.5-0.9,1.3-1,1.9C200.4,117,200.5,117.7,200.8,118.3L200.8,118.3z"/>
		</g>
	</g>
</g>
<g>
	<path class="st1" d="M237.3,131.2c-1.1-0.7,0.5-2.1,0.5-2.1c-2.5,0-3.7,1.7-4.3,3h-0.9v-0.4h-0.4v2.8h10.9v-3.1h-0.4v0.8h-0.6
		c-0.1-0.7-0.2-1.5-0.3-2.1c-0.2-1.7,0.6-1,0.6-1s0.1,0.1,0.7,0.5c0.9,0.8,0.5-0.8-0.3-1.8c-0.8-1-1-1.3-1.1-0.2
		c-0.1,1-1.3,1.2-1.3,1.2s-0.2,0.1-1.4,0.3C237.2,129.2,237.3,131.2,237.3,131.2z"/>
	<path class="st1" d="M236.6,126.9c-0.1,0.2-0.3,0.4-0.2,0.7c0,0.3,0.2,0.5,0.4,0.6c-0.1-0.2-0.1-0.4-0.1-0.5c0-0.2,0.1-0.3,0.2-0.4
		c0.1-0.2,0.3-0.4,0.3-0.7c0-0.3-0.2-0.5-0.4-0.6c0.1,0.2,0.1,0.4,0.1,0.5C236.8,126.6,236.7,126.7,236.6,126.9z"/>
	<path class="st1" d="M237.8,128.4c0-0.2-0.1-0.3,0-0.4c0-0.1,0.1-0.2,0.2-0.3c0.1-0.1,0.2-0.3,0.2-0.5c0-0.2-0.2-0.4-0.3-0.4
		c0.1,0.2,0.1,0.3,0,0.4c0,0.1-0.1,0.2-0.2,0.3c-0.1,0.1-0.2,0.3-0.2,0.5C237.5,128.2,237.6,128.3,237.8,128.4z"/>
	<path class="st1" d="M248.8,128.1c-0.3,0-0.5,0.1-0.7,0.2h-0.7v0.6c-0.1,0.2-0.2,0.5-0.2,0.8c0,0.9,0.7,1.7,1.7,1.7
		c0.9,0,1.7-0.7,1.7-1.7C250.5,128.9,249.8,128.1,248.8,128.1z"/>
	<path class="st1" d="M228.8,121.4v16.7h24v-16.7H228.8z M234.2,123l-3.8,6.2V123H234.2z M244.9,136.4h-14.5v-6.7l0.2,0.1l4.2-6.9
		h10.1V136.4z M248.4,135h-1.2v-1.4h1.2V135z M250.5,135h-1.2v-1.4h1.2V135z M248.8,132c-1.3,0-2.3-1-2.3-2.3c0-1.3,1-2.3,2.3-2.3
		c1.3,0,2.3,1,2.3,2.3C251.1,131,250.1,132,248.8,132z M251.4,125.3H246v-2.4h5.4V125.3z"/>
</g>
<g>
	<path class="st1" d="M265.3,143.6c-0.3,0-0.6-0.3-0.6-0.6V140c0-1.3,0.3-1.9,1.3-2.4c0.8-0.5,6.2-3.6,8.8-4.7v-4.7
		c-0.8-0.6-1.3-1.4-1.3-2.8v-3.7c0-3.1,1.9-5.6,5.6-5.6c3.8,0,5.6,2.5,5.6,5.6v3.7c0,1.3-0.5,2.2-1.3,2.8v4.7
		c2.7,1.1,7.9,4.2,8.7,4.7c1,0.6,1.3,1.1,1.3,2.4v2.9c0,0.3-0.3,0.6-0.6,0.6H265.3L265.3,143.6z M294.7,139.5c0-1.6-0.4-2.6-2.1-3.6
		c-0.5-0.3-1-0.6-1.6-0.9v-0.4c-0.8,0-1.4-0.2-2-0.4c-0.6-0.3-1.2-0.6-1.8-1c-0.4-0.3-0.7-0.6-0.9-0.8c-0.1-0.1-0.2-0.3-0.2-0.4
		c0-0.6,1.1-1.3,2-2.3c1.1-1.2,1.3-2.3,1.3-4.8c0-2.3,1.9-4.9,4.9-4.9c3,0,4.9,2.6,4.9,4.9c0,2.5,0.2,3.5,1.2,4.8
		c0.9,1,1.9,1.7,1.9,2.3c0,0.2-0.1,0.3-0.2,0.5c-0.7,0.8-2.4,2-4.9,2.2v2.5c2.5,1.1,5.4,2.5,6.2,2.9c0.7,0.4,1.3,0.9,1.3,1.8v1.2
		c0,0.3-0.2,0.6-0.6,0.6h-9.4L294.7,139.5z"/>
</g>
</svg>
