<?xml version="1.0" encoding="utf-8"?>
<!-- Generator: Adobe Illustrator 22.1.0, SVG Export Plug-In . SVG Version: 6.00 Build 0)  -->
<svg version="1.1" id="bakery-logo-light" xmlns="http://www.w3.org/2000/svg" xmlns:xlink="http://www.w3.org/1999/xlink" x="0px"
	 y="0px" viewBox="0 0 105 105" style="enable-background:new 0 0 105 105;" xml:space="preserve">
<style type="text/css">
	.st0{fill:#D7D7D7;}
	.st1{fill:#FDB822;}
</style>
<g id="est-2014">
	<g>
		<path class="st0" d="M36.8,78.8c-0.1,0.1-0.1,0.2-0.2,0.3c-0.1,0.1-0.2,0.2-0.3,0.3c-0.1,0.1-0.2,0.1-0.3,0.2
			c-0.1,0-0.3,0.1-0.4,0.1c-0.2,0-0.3,0-0.5-0.1c-0.2-0.1-0.4-0.1-0.5-0.2c-0.2-0.1-0.4-0.2-0.5-0.2s-0.3-0.1-0.4-0.1
			s-0.2,0-0.3,0.1s-0.2,0.1-0.2,0.2c-0.1,0.1-0.1,0.1-0.2,0.2c-0.1,0.1-0.1,0.2-0.2,0.2L32.3,79c0.1-0.1,0.1-0.2,0.2-0.3
			c0.1-0.1,0.2-0.2,0.3-0.3c0.1-0.1,0.2-0.1,0.3-0.2c0.1,0,0.3-0.1,0.4-0.1c0.2,0,0.3,0,0.5,0.1c0.2,0.1,0.4,0.1,0.5,0.2
			c0.2,0.1,0.4,0.2,0.5,0.2c0.2,0.1,0.3,0.1,0.4,0.1c0.1,0,0.2,0,0.3-0.1c0.1,0,0.2-0.1,0.2-0.2s0.1-0.1,0.2-0.2s0.1-0.2,0.2-0.2
			L36.8,78.8z"/>
		<path class="st0" d="M39.7,74.5h2.9v0.9h-1.9v2h1.7v0.9h-1.7v2h1.9v1h-2.9V74.5z"/>
		<path class="st0" d="M46.3,76.5h-1v-0.2c0-0.2-0.1-0.4-0.2-0.6s-0.3-0.2-0.5-0.2c-0.1,0-0.2,0-0.3,0.1s-0.2,0.1-0.2,0.2
			s-0.1,0.1-0.1,0.2s0,0.2,0,0.3c0,0.1,0,0.2,0,0.3c0,0.1,0,0.2,0.1,0.2c0,0.1,0.1,0.1,0.2,0.2c0.1,0.1,0.2,0.1,0.3,0.2l0.7,0.3
			c0.2,0.1,0.4,0.2,0.5,0.3c0.1,0.1,0.2,0.2,0.3,0.4c0.1,0.1,0.1,0.3,0.1,0.5s0,0.4,0,0.7c0,0.3,0,0.6-0.1,0.8
			c-0.1,0.2-0.2,0.5-0.3,0.6c-0.1,0.2-0.3,0.3-0.5,0.4c-0.2,0.1-0.5,0.2-0.8,0.2c-0.2,0-0.5,0-0.7-0.1c-0.2-0.1-0.4-0.2-0.5-0.3
			s-0.3-0.3-0.3-0.5s0-0.5,0-0.7v-0.4h1v0.3c0,0.2,0.1,0.3,0.2,0.5c0.1,0.1,0.3,0.2,0.5,0.2c0.2,0,0.3,0,0.4-0.1
			c0.1-0.1,0.2-0.1,0.2-0.2s0.1-0.2,0.1-0.3c0-0.1,0-0.3,0-0.4c0-0.2,0-0.3,0-0.4s0-0.2-0.1-0.3s-0.1-0.1-0.2-0.2
			c-0.1,0-0.2-0.1-0.3-0.1l-0.7-0.3c-0.4-0.2-0.7-0.4-0.8-0.7s-0.3-0.7-0.3-1.1c0-0.3,0-0.5,0.1-0.7s0.2-0.4,0.3-0.6
			s0.3-0.3,0.5-0.4c0.2-0.1,0.5-0.1,0.7-0.1c0.2,0,0.5,0,0.7,0.1c0.2,0.1,0.4,0.2,0.5,0.4c0.1,0.1,0.3,0.3,0.3,0.5
			c0.1,0.2,0.1,0.4,0.1,0.6L46.3,76.5L46.3,76.5z"/>
		<path class="st0" d="M47.8,75.4h-1.1v-0.9h3.2v0.9h-1.1v5.9h-1C47.8,81.3,47.8,75.4,47.8,75.4z"/>
		<path class="st0" d="M51.8,80.4l1.8-3.3c0.1-0.2,0.1-0.3,0.2-0.4c0-0.1,0-0.3,0-0.5c0-0.1,0-0.2,0-0.3c0-0.1,0-0.2-0.1-0.2
			c0-0.1-0.1-0.1-0.1-0.2c-0.1,0-0.2-0.1-0.3-0.1s-0.3,0-0.3,0.1C53,75.6,53,75.7,53,75.9v0.6h-1V76c0-0.2,0-0.4,0.1-0.6
			s0.2-0.3,0.3-0.5s0.3-0.2,0.5-0.3c0.2-0.1,0.4-0.1,0.6-0.1c0.3,0,0.5,0,0.7,0.1c0.2,0.1,0.3,0.2,0.4,0.4c0.1,0.2,0.2,0.3,0.3,0.5
			s0.1,0.4,0.1,0.6s0,0.3,0,0.4s0,0.2,0,0.3c0,0.1-0.1,0.2-0.1,0.3c0,0.1-0.1,0.2-0.2,0.4l-1.6,2.8h1.8v1h-2.9L51.8,80.4L51.8,80.4z
			"/>
		<path class="st0" d="M55.5,75.9c0-0.2,0-0.4,0.1-0.6s0.2-0.3,0.3-0.5c0.1-0.1,0.3-0.2,0.5-0.3c0.2-0.1,0.4-0.1,0.5-0.1
			c0.2,0,0.4,0,0.5,0.1c0.2,0.1,0.3,0.2,0.5,0.3c0.1,0.1,0.2,0.3,0.3,0.5s0.1,0.4,0.1,0.6v4c0,0.2,0,0.4-0.1,0.6s-0.2,0.3-0.3,0.5
			c-0.1,0.1-0.3,0.2-0.5,0.3c-0.2,0.1-0.4,0.1-0.5,0.1c-0.2,0-0.4,0-0.5-0.1c-0.2-0.1-0.3-0.2-0.5-0.3c-0.1-0.1-0.2-0.3-0.3-0.5
			s-0.1-0.4-0.1-0.6V75.9z M56.5,79.9c0,0.1,0,0.3,0.1,0.3c0.1,0.1,0.2,0.1,0.3,0.1s0.3,0,0.3-0.1c0.1-0.1,0.1-0.2,0.1-0.3v-4
			c0-0.1,0-0.3-0.1-0.3c-0.1-0.1-0.2-0.1-0.3-0.1s-0.3,0-0.3,0.1c-0.1,0.1-0.1,0.2-0.1,0.3V79.9z"/>
		<path class="st0" d="M60.2,75.5l-1,0.7v-1l1-0.7h1v6.8h-1V75.5z"/>
		<path class="st0" d="M64.2,80.3h-1.9v-0.9l1.4-4.9h1l-1.5,4.9h1v-1.9h1v1.9h0.5v0.9h-0.5v1h-1V80.3z"/>
		<path class="st0" d="M72.7,78.8c-0.1,0.1-0.1,0.2-0.2,0.3c-0.1,0.1-0.2,0.2-0.3,0.3c-0.1,0.1-0.2,0.1-0.3,0.2s-0.3,0.1-0.4,0.1
			c-0.2,0-0.3,0-0.5-0.1s-0.4-0.1-0.5-0.2c-0.2-0.1-0.4-0.2-0.5-0.2s-0.3-0.1-0.4-0.1s-0.2,0-0.3,0.1c-0.1,0-0.2,0.1-0.2,0.2
			c-0.1,0.1-0.1,0.1-0.2,0.2s-0.1,0.2-0.2,0.2L68.2,79c0.1-0.1,0.1-0.2,0.2-0.3s0.2-0.2,0.3-0.3c0.1-0.1,0.2-0.1,0.3-0.2
			s0.3-0.1,0.4-0.1c0.2,0,0.3,0,0.5,0.1s0.4,0.1,0.5,0.2c0.2,0.1,0.4,0.2,0.5,0.2c0.2,0.1,0.3,0.1,0.4,0.1s0.2,0,0.3-0.1
			c0.1,0,0.2-0.1,0.2-0.2c0.1-0.1,0.1-0.1,0.2-0.2s0.1-0.2,0.2-0.2L72.7,78.8z"/>
	</g>
</g>
<g id="bakery">
	<g>
		<path class="st0" d="M23.2,47.4h3.7c0.8,0,1.5,0.1,2.1,0.4c0.6,0.3,1,0.6,1.4,1.1s0.6,1,0.8,1.6c0.2,0.6,0.2,1.2,0.2,1.8V53
			c0,0.5,0,1-0.1,1.3c-0.1,0.4-0.2,0.7-0.3,1c-0.1,0.3-0.3,0.5-0.5,0.7s-0.5,0.4-0.7,0.6c0.6,0.3,1,0.8,1.3,1.4
			c0.3,0.6,0.4,1.4,0.4,2.4v1.1c0,1.7-0.4,3-1.1,3.9c-0.8,0.9-2,1.4-3.6,1.4h-3.5L23.2,47.4L23.2,47.4z M25.7,55.4h1.1
			c0.8,0,1.4-0.2,1.7-0.7c0.3-0.5,0.4-1.1,0.4-2s-0.2-1.5-0.5-2c-0.3-0.4-0.9-0.7-1.8-0.7h-1L25.7,55.4L25.7,55.4z M25.7,64.1h1.1
			c0.5,0,0.9-0.1,1.2-0.2c0.3-0.2,0.5-0.4,0.7-0.7c0.1-0.3,0.2-0.6,0.3-1c0-0.4,0-0.8,0-1.3s0-0.9-0.1-1.3c0-0.4-0.2-0.7-0.3-0.9
			c-0.2-0.2-0.4-0.4-0.7-0.6s-0.7-0.2-1.1-0.2h-1.1V64.1z"/>
		<path class="st0" d="M36.3,47.4h2.1l3.9,19.5h-2.5l-0.7-4.2h-3.5l-0.7,4.2h-2.5L36.3,47.4z M37.3,53L37.3,53L36,60h2.5L37.3,53z"
			/>
		<path class="st0" d="M43.6,47.4h2.5v8.9l0,0l3.7-8.9h2.6l-3.5,7.8L53,66.9h-2.6l-2.9-8.6L46.1,61v5.8h-2.5V47.4z"/>
		<path class="st0" d="M54.2,47.4h7.6V50h-5v5.7h4.4v2.6h-4.4V64h5v2.8h-7.6V47.4z"/>
		<path class="st0" d="M63.4,47.4h4c3,0,4.5,1.9,4.5,5.7c0,1.1-0.2,2.1-0.5,2.9c-0.3,0.8-0.9,1.5-1.7,2l2.7,8.9h-2.7l-2.3-8.3h-1.5
			v8.3h-2.5V47.4z M65.9,56.1h1.4c0.4,0,0.8-0.1,1.1-0.2c0.3-0.1,0.5-0.3,0.6-0.6s0.2-0.6,0.3-0.9c0-0.4,0.1-0.8,0.1-1.3
			s0-0.9-0.1-1.3c-0.1-0.4-0.2-0.7-0.3-1c-0.2-0.3-0.4-0.5-0.7-0.6S67.7,50,67.2,50h-1.3V56.1z"/>
		<path class="st0" d="M75.9,58.6l-3.5-11.2h2.7l2,7.7l0,0l2-7.7h2.7l-3.4,11.2v8.2h-2.5V58.6L75.9,58.6z"/>
	</g>
</g>
<g id="symbol">
	<path class="st1" d="M52.5,23.6c-0.9-1.1-2.2-1.6-3.5-2c-1.1-0.3-2.2-0.3-3.3-0.2c-0.1,0-0.2,0-0.2-0.1c1.7-0.6,3.4-0.6,5.1,0
		c2.8,0.9,4.9,2.7,5.7,5.7c0.6,2.3,0,4.4-1.3,6.3c-1.5,2.1-3.5,3.5-5.9,4.4c-0.7,0.3-1.4,0.3-2,0c-0.3-0.1-0.3-0.3-0.2-0.6
		c0.3-0.8,0.8-1.5,1.4-2.1c1-1,2-2,2.9-3.2c0.5-0.6,0.9-1.3,1.1-2.1c0.2-1.1-0.1-2.1-1-2.8c-1.3-1.1-3.6-1.1-5-0.2
		c-1.3,0.8-1.8,2.5-1.3,4.2c0.2,0.7,0.6,1.4,1,2c0.3,0.4,0.5,0.8,0.8,1.2s0.4,0.6,0,1s-0.7,1-0.8,1.6c-0.3,1.3,0.4,2.1,1.7,2.2
		c0.7,0,1.4-0.2,2-0.5c0.5-0.2,1-0.4,1.5-0.7c1.3-0.6,2.5-0.6,3.9-0.3c0.2,0,0.4,0.1,0.6,0.3c-0.8,0.1-1.6,0.4-2.5,0.4
		c0.6,0.4,1.2,0.4,1.7,0.2c1.2-0.3,2.4-0.3,3.6,0.3c0.5,0.2,1.1,0.2,1.8,0.2c-1.2,1-2.4,1.7-3.8,2.1c-5.2,1.7-11.4-0.3-14.7-4.7
		c-1.7-2.3-2.5-5.5-1.9-8.3c0.1,1.4,0.3,2.7,0.8,4s1.2,2.4,2.2,3.5C43,35,43,35,42.6,34.3c-0.7-1.5-1-3.2-1-4.9
		c0.1-3.2,2-5.8,4.9-6.5C48.5,22.3,50.6,22.4,52.5,23.6C52.5,23.6,52.5,23.7,52.5,23.6C52.6,23.6,52.5,23.6,52.5,23.6z M53,27.7
		c0.2,1.6-0.1,3-0.8,4.2S50.5,34,49.5,35c-0.2,0.2-0.4,0.4-0.6,0.6c0.8-0.3,1.5-0.9,2.1-1.4c1.1-1.1,2.1-2.2,2.6-3.8
		C53.9,29.5,53.8,28.6,53,27.7z"/>
	<path class="st1" d="M61.2,37.7c0-0.8-0.4-1.3-0.7-1.9c-0.1-0.2-0.2-0.3,0-0.6c1-1.3,1.5-2.9,1.7-4.5c0.2-1.4,0.2-2.7-0.2-4
		c-0.6-1.9-2.1-2.9-4.1-2.7c0.3,0.1,0.5,0.1,0.8,0.2c1.1,0.4,1.9,1.2,2.3,2.3c0.9,2.4,0.7,4.8-0.6,7c-0.1,0.2-0.3,0.5-0.5,0.7
		c-0.1,0.1-0.2,0.3-0.3,0.2s-0.2-0.2-0.2-0.4c-0.1-0.3-0.1-0.6,0-0.9c0.2-0.5,0.3-1,0.5-1.4c0.6-1.4,0.6-2.9,0.3-4.3
		c-0.4-1.5-1.4-2.3-2.9-2.4c-0.3,0-0.5-0.1-0.6-0.4c-0.6-1-1.5-1.9-2.4-2.6c-0.1-0.1-0.3-0.2-0.5-0.3c0.9-0.4,1.7-0.7,2.6-0.8
		c1.4-0.2,2.8-0.2,4.1,0.2c2.4,0.7,3.8,2.4,4.4,4.8c0.9,3.5,0.4,6.7-1.6,9.7C62.8,36.4,62.1,37.1,61.2,37.7z"/>
	<path class="st1" d="M58.8,37.8c-0.7,0-1.3-0.3-2-0.6c-0.9-0.5-1.7-1.1-2.6-1.7C54,35.3,54,35.2,54.1,35c0.4-0.4,0.8-0.9,1.2-1.3
		c0.3-0.3,0.6-0.7,0.8-1.1c0.1-0.3,0.3-0.3,0.5-0.1c1.2,0.9,2.2,2,3.1,3.3c0.1,0.1,0.1,0.2,0.1,0.3C60.4,37.3,60,37.9,58.8,37.8z"/>
	<path class="st1" d="M51.5,29c0,0.6-0.2,1.2-0.7,1.8c-0.2,0.2-0.4,0.3-0.6,0c-0.1-0.1-0.3-0.2-0.3-0.4c-0.7-1.1-0.7-2.2-0.2-3.3
		c0.2-0.3,0.4-0.4,0.7-0.3C51.1,27.1,51.5,27.8,51.5,29z"/>
</g>
<path id="yellow-circle" class="st1" d="M52.6,11.1C75.8,11.2,94.2,30,94.2,52.5c0,22.6-18.4,41.4-41.6,41.4
	C29.3,93.9,11,75,11,52.5C11,30,29.4,11.1,52.6,11.1z M52.7,12.4c-22.2,0-40.3,17.9-40.3,40c0,22.2,18,40.2,40.2,40.2
	s40.3-17.9,40.4-40C93,30.4,74.9,12.4,52.7,12.4z"/>
<g id="circle-text">
	<g>
		<g>
			<path class="st0" d="M35.9,100L34,99.3c-0.2-0.1-0.4-0.2-0.6-0.3c-0.2-0.1-0.3-0.3-0.4-0.5c-0.1-0.2-0.2-0.4-0.2-0.7
				c0-0.3,0-0.5,0.1-0.8c0.2-0.4,0.4-0.7,0.8-0.9c0.4-0.2,0.9-0.2,1.4-0.1l1.2,0.5l0.8-2.1l0.8,0.3L35.9,100z M36.1,97.2l-1.2-0.5
				c-0.3-0.1-0.5-0.1-0.8,0c-0.2,0.1-0.4,0.3-0.4,0.5c-0.1,0.2-0.1,0.3-0.1,0.5c0,0.1,0.1,0.3,0.1,0.4c0.1,0.2,0.3,0.3,0.5,0.4
				l1.1,0.4L36.1,97.2z"/>
			<path class="st0" d="M30.7,97.9l-1.9-1c-0.4-0.2-0.7-0.5-0.8-0.9c-0.2-0.4-0.1-0.9,0.1-1.3c0.4-0.7,0.9-1,1.7-0.9l0.1-2.8
				l0.9,0.5l-0.1,2.7l0.9,0.5l1.1-2.2l0.7,0.4L30.7,97.9z M31.1,95.3L30,94.7c-0.3-0.1-0.5-0.2-0.8-0.1c-0.2,0.1-0.4,0.2-0.5,0.4
				c-0.1,0.3-0.2,0.5-0.1,0.7c0.1,0.2,0.2,0.3,0.5,0.4l1.2,0.6L31.1,95.3z"/>
			<path class="st0" d="M25.7,95.1l-2.9-2l0.5-0.7l2.2,1.5l0.9-1.3l-1.9-1.3l0.4-0.6l1.9,1.3l0.9-1.4L25.5,89l0.5-0.7l2.9,2
				L25.7,95.1z"/>
			<path class="st0" d="M21.2,92l-0.6-0.5l1.3-3.8l-3.6,1.8l-0.6-0.5l3.8-4.3l0.6,0.5l-2.3,2.7l0,0l2.7-1.3L23,87L22,89.8l0,0
				l2.3-2.7l0.6,0.5L21.2,92z"/>
			<path class="st0" d="M16.2,87.3l-0.6-0.6l4.1-3.9l0.6,0.6L16.2,87.3z"/>
			<path class="st0" d="M14.4,85.3l-0.5-0.7l2.9-2.3c0.3-0.2,0.5-0.5,0.5-0.8c0-0.3,0-0.6-0.2-0.8c-0.2-0.3-0.5-0.4-0.8-0.4
				c-0.3,0-0.6,0.1-0.9,0.3l-2.9,2.3l-0.5-0.7l3-2.3c0.5-0.4,1-0.5,1.5-0.4c0.5,0.1,0.9,0.3,1.3,0.8c0.3,0.4,0.5,0.9,0.4,1.4
				c0,0.5-0.3,1-0.8,1.3L14.4,85.3z"/>
			<path class="st0" d="M10.6,80.5l-0.4-0.7l2.4-3.3l-4,0.6l-0.4-0.7l4.9-2.9l0.4,0.7l-3,1.8l0,0l2.9-0.4l0.4,0.6L12,78.6l0,0l3-1.8
				l0.4,0.7L10.6,80.5z"/>
			<path class="st0" d="M6.2,72.5l-0.3-0.8l3.5-2.2l0,0l-4.2,0.4l-0.2-0.6l3.5-2.4l0,0l-4.1,0.5l-0.3-0.8l5.8-0.6l0.2,0.7L6.7,69
				l0,0l4.2-0.4l0.2,0.7L6.2,72.5z"/>
			<path class="st0" d="M6.5,64.3c-0.6,0.1-1.1,0.2-1.3,0.2c-0.2,0-0.4,0-0.6-0.1c-0.3-0.1-0.6-0.2-0.8-0.5c-0.3-0.2-0.4-0.6-0.5-1
				c-0.1-0.4-0.1-0.8,0.1-1.1c0.1-0.3,0.3-0.6,0.6-0.8C4,61,4.2,60.9,4.4,60.8c0.2-0.1,0.6-0.2,1.3-0.3c0.6-0.1,1.1-0.2,1.3-0.2
				c0.2,0,0.4,0,0.6,0.1c0.3,0.1,0.6,0.2,0.8,0.5c0.3,0.2,0.4,0.6,0.5,1c0.1,0.4,0,0.8-0.1,1.1c-0.1,0.3-0.3,0.6-0.5,0.8
				c-0.1,0.1-0.1,0.1-0.2,0.2C8,63.9,7.9,64,7.8,64C7.6,64.1,7.1,64.2,6.5,64.3z M6.3,63.5c0.5-0.1,0.9-0.2,1.1-0.3
				c0.2-0.1,0.3-0.2,0.4-0.3C8,62.8,8,62.7,8.1,62.5c0.1-0.2,0.1-0.3,0-0.5c0-0.2-0.1-0.4-0.2-0.5c-0.1-0.1-0.2-0.2-0.3-0.3
				c-0.1-0.1-0.3-0.1-0.5-0.1c-0.2,0-0.6,0.1-1.1,0.2c-0.5,0.1-0.9,0.2-1.1,0.3c-0.2,0.1-0.3,0.2-0.4,0.3c-0.1,0.1-0.2,0.2-0.2,0.4
				c0,0.2,0,0.3,0,0.5c0,0.2,0.1,0.3,0.2,0.5c0.1,0.1,0.2,0.2,0.4,0.3c0.1,0.1,0.3,0.1,0.5,0.1C5.4,63.7,5.8,63.6,6.3,63.5z"/>
			<path class="st0" d="M2.6,59.1l-0.2-2.1c0-0.5,0-0.8,0.3-1.2c0.2-0.4,0.6-0.6,1.2-0.7c0.8-0.1,1.3,0.2,1.7,0.9l2.4-1.5l0.1,1
				l-2.3,1.4l0.1,1.1l2.4-0.2l0.1,0.8L2.6,59.1z M5,58l-0.1-1.3c0-0.3-0.1-0.5-0.3-0.7c-0.2-0.1-0.4-0.2-0.6-0.2
				c-0.3,0-0.5,0.1-0.6,0.3c-0.1,0.2-0.1,0.4-0.1,0.6l0.1,1.3L5,58z"/>
			<path class="st0" d="M2.2,53.3l0-1.9c0-0.7,0.4-1.3,1-1.7c0.2-0.1,0.4-0.2,0.7-0.2c0.2,0,0.6,0,1.2,0c0.6,0,1,0,1.3,0.1
				c0.1,0,0.2,0.1,0.3,0.1c0.1,0,0.2,0.1,0.3,0.2c0.3,0.2,0.5,0.4,0.6,0.7c0.2,0.3,0.3,0.6,0.3,1.1l0,1.9L2.2,53.3z M7.1,52.6l0-1
				c0-0.5-0.1-0.8-0.5-1c-0.1-0.1-0.3-0.2-0.5-0.2c-0.2,0-0.5,0-1-0.1c-0.5,0-0.9,0-1.1,0c-0.2,0-0.4,0.1-0.5,0.2
				c-0.3,0.2-0.5,0.5-0.5,1l0,1L7.1,52.6z"/>
			<path class="st0" d="M2.5,47.3l0.3-2c0-0.2,0.1-0.4,0.2-0.6c0.1-0.2,0.2-0.4,0.4-0.6c0.2-0.2,0.4-0.3,0.6-0.3
				c0.2-0.1,0.5-0.1,0.8,0c0.4,0.1,0.8,0.3,1.1,0.6c0.3,0.3,0.4,0.8,0.4,1.4L6,47l2.2,0.3l-0.1,0.8L2.5,47.3z M5.2,46.9l0.2-1.2
				c0-0.3,0-0.6-0.2-0.7c-0.2-0.2-0.4-0.3-0.6-0.3c-0.2,0-0.4,0-0.5,0c-0.1,0-0.2,0.1-0.3,0.2c-0.1,0.2-0.2,0.3-0.2,0.6l-0.2,1.2
				L5.2,46.9z"/>
			<path class="st0" d="M3.4,41.8L4,39.7c0.1-0.4,0.3-0.8,0.7-1c0.4-0.3,0.8-0.3,1.3-0.2c0.7,0.2,1.2,0.7,1.2,1.4l2.8-0.6l-0.3,1
				l-2.6,0.5l-0.3,1l2.3,0.6l-0.2,0.8L3.4,41.8z M6,41.6l0.3-1.2c0.1-0.3,0-0.6-0.1-0.8c-0.1-0.2-0.3-0.3-0.5-0.4
				c-0.3-0.1-0.5,0-0.7,0.1c-0.2,0.1-0.3,0.3-0.3,0.5l-0.3,1.3L6,41.6z"/>
			<path class="st0" d="M5,36.3L6.3,33l0.8,0.3l-1,2.5l1.5,0.6l0.8-2.1l0.7,0.3l-0.8,2.1l1.6,0.6l1-2.5l0.8,0.3l-1.3,3.3L5,36.3z"/>
			<path class="st0" d="M10.9,33.3c0.5-0.2,0.9-0.6,1.2-1.1c0.3-0.6,0.3-1.1-0.2-1.3c-0.4-0.2-0.7-0.1-1,0.3
				c-0.1,0.2-0.3,0.4-0.4,0.6c-0.3,0.4-0.6,0.6-1,0.7c-0.4,0.1-0.7,0-1.1-0.2c-0.4-0.2-0.7-0.6-0.8-1c-0.1-0.4-0.1-0.9,0.2-1.4
				c0.3-0.6,0.8-1,1.4-1.3l0.4,0.7c-0.4,0.2-0.8,0.6-1,1c-0.1,0.2-0.2,0.4-0.1,0.7c0,0.2,0.2,0.4,0.4,0.5c0.1,0.1,0.3,0.1,0.5,0
				c0.2,0,0.4-0.2,0.5-0.4c0.1-0.1,0.2-0.3,0.4-0.5c0.3-0.4,0.7-0.7,1-0.7c0.4-0.1,0.8,0,1.1,0.2c1,0.5,1.1,1.4,0.6,2.5
				c-0.4,0.7-0.9,1.2-1.7,1.5L10.9,33.3z"/>
			<path class="st0" d="M13.3,28.9c0.6-0.2,1-0.5,1.3-1c0.4-0.6,0.4-1.1-0.1-1.3c-0.4-0.2-0.7-0.2-1,0.2c-0.1,0.2-0.3,0.4-0.5,0.5
				c-0.3,0.4-0.7,0.5-1.1,0.6c-0.4,0.1-0.7,0-1.1-0.3c-0.4-0.3-0.7-0.6-0.7-1.1c-0.1-0.4,0-0.9,0.3-1.4c0.4-0.6,0.9-0.9,1.5-1.2
				l0.3,0.8c-0.5,0.2-0.8,0.5-1.1,0.9c-0.1,0.2-0.2,0.4-0.2,0.6c0,0.2,0.1,0.4,0.4,0.6c0.1,0.1,0.3,0.1,0.5,0.1
				c0.2,0,0.4-0.1,0.6-0.3c0.1-0.1,0.2-0.3,0.4-0.5c0.3-0.4,0.7-0.6,1.1-0.6c0.4,0,0.8,0.1,1.1,0.3c0.9,0.6,1,1.5,0.3,2.5
				c-0.5,0.7-1.1,1.1-1.8,1.3L13.3,28.9z"/>
			<path class="st0" d="M14.4,20.2l1.4-1.6c0.4-0.4,0.7-0.6,1.1-0.6c0.4,0,0.8,0.1,1.1,0.4c0.2,0.2,0.3,0.3,0.4,0.6
				c0,0.1,0.1,0.2,0,0.4c0,0.1,0,0.3-0.1,0.5l0,0c0.3-0.2,0.5-0.2,0.8-0.2c0.3,0.1,0.5,0.2,0.8,0.4c0.4,0.3,0.5,0.7,0.6,1.1
				c0,0.4-0.1,0.8-0.4,1.1L18.6,24L14.4,20.2z M15.5,20.1l1.2,1.1l0.8-0.9c0.2-0.2,0.3-0.4,0.3-0.7c0-0.2-0.1-0.4-0.3-0.5
				c-0.2-0.2-0.4-0.2-0.6-0.2c-0.2,0-0.4,0.1-0.6,0.3L15.5,20.1z M17.3,21.7l1.3,1.2l0.9-1c0.2-0.2,0.3-0.5,0.3-0.7
				c0-0.2-0.1-0.4-0.3-0.6c-0.2-0.2-0.4-0.2-0.6-0.2c-0.2,0-0.4,0.1-0.6,0.3L17.3,21.7z"/>
			<path class="st0" d="M23.4,17.4l-1.6,1.4l0.5,1.2l-0.7,0.6L19.4,15l0.5-0.5l5.3,2.9l-0.7,0.6L23.4,17.4z M22.7,17l-2.2-1.3l0,0
				l1,2.4L22.7,17z"/>
			<path class="st0" d="M22.7,12.3l0.7-0.5l1.7,2.4l0,0l0.2-3.7l0.8-0.6l-0.1,2.9l3.6,1.7L28.7,15l-2.8-1.4L25.7,15l1,1.4L26,16.9
				L22.7,12.3z"/>
			<path class="st0" d="M27.6,9l3.1-1.7L31.1,8l-2.3,1.3l0.8,1.4l2-1.1l0.4,0.7l-2,1.1l0.8,1.5l2.3-1.3l0.4,0.7l-3.1,1.7L27.6,9z"/>
			<path class="st0" d="M32.3,6.5l2-0.8c0.4-0.2,0.8-0.2,1.2-0.1c0.4,0.1,0.8,0.4,1,0.9c0.3,0.7,0.2,1.3-0.4,1.9l2.2,1.8l-0.9,0.4
				l-2-1.8l-1,0.4l1,2.2l-0.8,0.3L32.3,6.5z M34,8.4l1.2-0.5c0.3-0.1,0.5-0.3,0.5-0.5c0.1-0.2,0.1-0.4,0-0.7
				c-0.1-0.3-0.3-0.4-0.5-0.5c-0.2-0.1-0.4,0-0.6,0.1l-1.2,0.5L34,8.4z"/>
			<path class="st0" d="M39.3,7.3l-2.6-2.7l0.8-0.3l1.9,2.1l0.4-2.8l0.8-0.3l-0.6,3.7l0.7,2.2L40,9.6L39.3,7.3z"/>
		</g>
		<g>
			<path class="st0" d="M53.5,2.2l2,0.1c0.2,0,0.4,0,0.6,0.1c0.2,0.1,0.4,0.2,0.6,0.4c0.2,0.1,0.3,0.3,0.4,0.6
				c0.1,0.2,0.1,0.5,0.1,0.8c0,0.4-0.2,0.8-0.5,1.1c-0.3,0.3-0.8,0.5-1.3,0.5l-1.3-0.1L54,7.9l-0.8,0L53.5,2.2z M54.2,4.9L55.4,5
				c0.3,0,0.5-0.1,0.7-0.3c0.2-0.2,0.2-0.4,0.3-0.6c0-0.2,0-0.4-0.1-0.5c-0.1-0.1-0.1-0.2-0.2-0.3c-0.2-0.1-0.4-0.2-0.6-0.2
				l-1.2-0.1L54.2,4.9z"/>
			<path class="st0" d="M59.1,2.6L61.2,3c0.5,0.1,0.8,0.3,1,0.6c0.3,0.3,0.4,0.8,0.3,1.3C62.5,5.6,62,6,61.3,6.2l0.8,2.7l-1-0.2
				l-0.7-2.6L59.4,6L59,8.4l-0.8-0.1L59.1,2.6z M59.5,5.2l1.2,0.2c0.3,0,0.6,0,0.7-0.2c0.2-0.1,0.3-0.3,0.3-0.6c0-0.3,0-0.5-0.2-0.7
				c-0.1-0.1-0.3-0.2-0.6-0.3l-1.3-0.2L59.5,5.2z"/>
			<path class="st0" d="M64.8,3.7l3.4,1l-0.2,0.8l-2.6-0.7l-0.4,1.6l2.2,0.6l-0.2,0.7L64.7,7l-0.5,1.6l2.6,0.7l-0.2,0.8l-3.4-1
				L64.8,3.7z"/>
			<path class="st0" d="M69.9,5.2l0.7,0.3l0,4l2.9-2.8l0.7,0.3L72,12.3L71.2,12l1.4-3.3l0,0l-2.1,2.1l-0.6-0.3l0-3l0,0l-1.4,3.3
				l-0.8-0.3L69.9,5.2z"/>
			<path class="st0" d="M76.2,8.1l0.7,0.4l-2.7,5l-0.7-0.4L76.2,8.1z"/>
			<path class="st0" d="M78.5,9.4l0.7,0.5l-2,3.1c-0.2,0.3-0.3,0.6-0.2,0.9c0.1,0.3,0.2,0.5,0.5,0.7c0.3,0.2,0.6,0.2,0.9,0.2
				c0.3-0.1,0.5-0.2,0.8-0.6l2-3.1l0.7,0.5l-2.1,3.1c-0.3,0.5-0.8,0.8-1.3,0.9c-0.5,0.1-1,0-1.5-0.3c-0.5-0.3-0.7-0.7-0.9-1.2
				c-0.1-0.5,0-1,0.3-1.5L78.5,9.4z"/>
			<path class="st0" d="M83.6,12.9l0.6,0.5l-1.2,3.8l3.6-1.8l0.6,0.5l-3.7,4.3l-0.6-0.5l2.3-2.7l0,0l-2.7,1.3l-0.5-0.5l0.9-2.8l0,0
				l-2.3,2.7l-0.6-0.5L83.6,12.9z"/>
			<path class="st0" d="M90.3,19.1l0.5,0.7L88.1,23l0,0l3.9-1.6l0.4,0.5l-2.5,3.3l0,0l3.7-1.8l0.5,0.7l-5.3,2.4l-0.4-0.6l2.6-3.3
				l0,0L87,24.3l-0.4-0.5L90.3,19.1z"/>
			<path class="st0" d="M92.5,26.9c0.6-0.3,1-0.5,1.2-0.6c0.2-0.1,0.4-0.1,0.6-0.1c0.3,0,0.6,0.1,0.9,0.2c0.3,0.1,0.6,0.4,0.8,0.8
				c0.2,0.4,0.3,0.8,0.3,1.1c0,0.4-0.1,0.7-0.3,0.9c-0.1,0.1-0.2,0.3-0.4,0.4c-0.2,0.1-0.6,0.4-1.1,0.7c-0.6,0.3-1,0.5-1.2,0.6
				c-0.2,0.1-0.4,0.1-0.6,0.1c-0.3,0-0.6,0-0.9-0.2c-0.3-0.1-0.6-0.4-0.8-0.8c-0.2-0.4-0.3-0.7-0.3-1.1c0-0.4,0.1-0.7,0.3-0.9
				c0.1-0.1,0.1-0.2,0.2-0.2c0.1-0.1,0.1-0.1,0.2-0.2C91.6,27.5,92,27.3,92.5,26.9z M92.9,27.7c-0.5,0.3-0.8,0.5-1,0.6
				c-0.2,0.1-0.3,0.3-0.3,0.4c-0.1,0.1-0.1,0.3-0.1,0.4c0,0.2,0,0.3,0.1,0.5c0.1,0.2,0.2,0.3,0.4,0.4c0.1,0.1,0.3,0.1,0.4,0.1
				c0.2,0,0.3,0,0.5,0c0.2-0.1,0.5-0.2,1-0.5c0.5-0.3,0.8-0.5,1-0.6c0.1-0.1,0.2-0.3,0.3-0.4c0.1-0.1,0.1-0.3,0.1-0.4
				c0-0.2-0.1-0.3-0.2-0.5c-0.1-0.2-0.2-0.3-0.4-0.4c-0.1-0.1-0.3-0.1-0.4-0.2c-0.2,0-0.3,0-0.5,0.1C93.8,27.2,93.4,27.4,92.9,27.7z
				"/>
			<path class="st0" d="M97.9,30.7l0.9,2c0.2,0.4,0.2,0.8,0.1,1.2c-0.1,0.4-0.4,0.8-0.9,1c-0.7,0.3-1.3,0.2-1.9-0.3l-1.8,2.2
				l-0.4-0.9l1.8-2l-0.4-1l-2.2,1L92.7,33L97.9,30.7z M95.9,32.5l0.5,1.2c0.1,0.3,0.3,0.5,0.5,0.5c0.2,0.1,0.4,0.1,0.7,0
				c0.3-0.1,0.4-0.3,0.5-0.5c0.1-0.2,0-0.4-0.1-0.6l-0.5-1.2L95.9,32.5z"/>
			<path class="st0" d="M100.1,36.1l0.6,1.8c0.2,0.7,0.1,1.3-0.4,1.9c-0.2,0.2-0.4,0.3-0.6,0.4c-0.2,0.1-0.6,0.2-1.2,0.4
				c-0.6,0.2-1,0.3-1.2,0.3c-0.1,0-0.2,0-0.3,0c-0.1,0-0.2,0-0.3-0.1c-0.3-0.1-0.6-0.2-0.8-0.5c-0.3-0.2-0.5-0.5-0.6-0.9l-0.5-1.8
				L100.1,36.1z M95.6,38.3l0.3,1c0.1,0.4,0.4,0.7,0.8,0.8c0.1,0.1,0.3,0.1,0.5,0c0.2,0,0.5-0.1,1-0.3c0.5-0.1,0.8-0.3,1-0.3
				c0.2-0.1,0.3-0.2,0.4-0.4c0.2-0.3,0.3-0.7,0.2-1.1l-0.3-1L95.6,38.3z"/>
			<path class="st0" d="M101.7,41.8l0.4,2c0,0.2,0.1,0.4,0,0.6c0,0.2-0.1,0.4-0.2,0.7c-0.1,0.2-0.2,0.4-0.5,0.5
				c-0.2,0.2-0.5,0.3-0.8,0.3c-0.4,0.1-0.8,0-1.2-0.2c-0.4-0.2-0.7-0.6-0.8-1.2l-0.2-1.3l-2.2,0.4l-0.1-0.8L101.7,41.8z M99.2,43.1
				l0.2,1.2c0.1,0.3,0.2,0.5,0.4,0.6c0.2,0.1,0.4,0.1,0.7,0.1c0.2,0,0.3-0.1,0.5-0.2c0.1-0.1,0.2-0.2,0.2-0.3
				c0.1-0.2,0.1-0.4,0.1-0.6l-0.2-1.2L99.2,43.1z"/>
			<path class="st0" d="M102.6,47.3l0.1,2.2c0,0.5-0.1,0.8-0.3,1.1c-0.3,0.4-0.7,0.6-1.2,0.6c-0.8,0-1.3-0.3-1.6-1l-2.4,1.4l-0.1-1
				l2.4-1.3l-0.1-1.1l-2.4,0.2l-0.1-0.8L102.6,47.3z M100.1,48.3l0.1,1.3c0,0.3,0.1,0.5,0.3,0.7c0.2,0.1,0.4,0.2,0.6,0.2
				c0.3,0,0.5-0.1,0.6-0.3c0.1-0.1,0.2-0.4,0.1-0.6l-0.1-1.3L100.1,48.3z"/>
			<path class="st0" d="M102.8,53.1l-0.2,3.5l-0.8,0l0.1-2.7l-1.6-0.1l-0.1,2.3l-0.8,0l0.1-2.3l-1.7-0.1l-0.1,2.7l-0.8,0l0.2-3.5
				L102.8,53.1z"/>
			<path class="st0" d="M98.2,57.8c-0.4,0.4-0.7,0.9-0.8,1.5c-0.1,0.7,0.1,1.1,0.6,1.2c0.4,0.1,0.7-0.1,0.9-0.6
				c0.1-0.2,0.1-0.5,0.2-0.7c0.2-0.5,0.4-0.8,0.7-1c0.3-0.2,0.7-0.3,1.1-0.2c0.5,0.1,0.9,0.3,1.1,0.7c0.3,0.4,0.3,0.8,0.3,1.4
				c-0.1,0.7-0.4,1.2-0.8,1.7l-0.6-0.6c0.3-0.4,0.6-0.8,0.6-1.3c0-0.3,0-0.5-0.1-0.7c-0.1-0.2-0.3-0.3-0.6-0.4c-0.2,0-0.3,0-0.5,0.1
				c-0.2,0.1-0.3,0.3-0.4,0.5c0,0.1-0.1,0.3-0.2,0.6c-0.1,0.5-0.4,0.8-0.7,1c-0.3,0.2-0.7,0.3-1.1,0.2c-1.1-0.2-1.5-0.9-1.3-2.2
				c0.1-0.8,0.5-1.5,1.1-2L98.2,57.8z"/>
			<path class="st0" d="M97.4,62.7c-0.5,0.3-0.8,0.8-0.9,1.4c-0.2,0.7,0,1.1,0.5,1.3c0.4,0.1,0.7-0.1,0.9-0.5
				c0.1-0.2,0.2-0.4,0.3-0.7c0.2-0.4,0.5-0.7,0.8-0.9c0.3-0.2,0.7-0.2,1.1-0.1c0.5,0.1,0.8,0.4,1,0.8c0.2,0.4,0.2,0.8,0.1,1.4
				c-0.2,0.7-0.5,1.2-1,1.6l-0.6-0.6c0.4-0.3,0.6-0.7,0.8-1.2c0.1-0.2,0.1-0.5,0-0.7c-0.1-0.2-0.3-0.4-0.5-0.4c-0.2,0-0.3,0-0.5,0.1
				c-0.2,0.1-0.3,0.3-0.4,0.5c-0.1,0.1-0.1,0.3-0.2,0.6c-0.2,0.5-0.5,0.8-0.8,1c-0.4,0.2-0.7,0.2-1.1,0.1c-1-0.3-1.4-1.1-1.1-2.3
				c0.2-0.8,0.6-1.4,1.3-1.8L97.4,62.7z"/>
			<path class="st0" d="M99.2,71.4l-0.9,2c-0.2,0.5-0.5,0.8-0.9,0.9c-0.4,0.1-0.8,0.1-1.2-0.1c-0.2-0.1-0.4-0.2-0.5-0.4
				c-0.1-0.1-0.1-0.2-0.2-0.3c0-0.1-0.1-0.3-0.1-0.5l0,0c-0.2,0.2-0.4,0.4-0.7,0.4c-0.3,0-0.6,0-0.8-0.1c-0.4-0.2-0.7-0.5-0.9-0.9
				c-0.2-0.4-0.1-0.8,0-1.2l1-2.1L99.2,71.4z M95.9,70.9l-1.6-0.7l-0.5,1.2c-0.1,0.3-0.1,0.5,0,0.7c0.1,0.2,0.2,0.3,0.5,0.4
				c0.2,0.1,0.4,0.1,0.6,0c0.2-0.1,0.4-0.2,0.5-0.5L95.9,70.9z M98.1,71.8l-1.5-0.7l-0.5,1.1c-0.1,0.3-0.1,0.5,0,0.7
				c0.1,0.2,0.2,0.3,0.4,0.4c0.2,0.1,0.4,0.1,0.6,0c0.2-0.1,0.4-0.2,0.5-0.5L98.1,71.8z"/>
			<path class="st0" d="M91.4,76.8l1.1-1.8l-0.9-1l0.5-0.8l3.9,4.6l-0.4,0.6l-5.9-1.2l0.5-0.8L91.4,76.8z M92.2,77l2.5,0.6l0,0
				l-1.7-2L92.2,77z"/>
			<path class="st0" d="M93.6,81.5l-0.5,0.7l-2.3-1.8l0,0l0.9,3.6l-0.6,0.8L90.4,82l-3.9-0.5l0.6-0.8l3.1,0.5L90,79.8l-1.4-1.1
				l0.5-0.7L93.6,81.5z"/>
			<path class="st0" d="M89.9,86.1l-2.4,2.5l-0.6-0.6l1.9-1.9L87.6,85L86,86.7l-0.6-0.5l1.6-1.7l-1.2-1.2L84,85.3l-0.6-0.6l2.4-2.5
				L89.9,86.1z"/>
			<path class="st0" d="M86.2,89.9l-1.7,1.4c-0.4,0.3-0.7,0.4-1.1,0.4c-0.5,0-0.8-0.2-1.2-0.6c-0.5-0.6-0.6-1.2-0.2-1.9l-2.6-1.1
				l0.8-0.6l2.4,1.1l0.8-0.7l-1.6-1.9l0.6-0.5L86.2,89.9z M83.9,88.5l-1,0.8c-0.2,0.2-0.4,0.4-0.4,0.7c0,0.2,0.1,0.4,0.2,0.6
				c0.2,0.2,0.4,0.3,0.6,0.3c0.2,0,0.4-0.1,0.6-0.3l1-0.8L83.9,88.5z"/>
			<path class="st0" d="M79.2,91.1l3.3,1.8l-0.7,0.5L79.4,92l0.5,2.7l-0.7,0.5l-0.5-3.7l-1.3-1.9l0.7-0.4L79.2,91.1z"/>
			<path class="st0" d="M74.5,96.9l1.4-0.7l0.3,0.7l-3.5,1.7l-0.3-0.7l1.4-0.7l-2.1-4.4l0.8-0.4L74.5,96.9z"/>
			<path class="st0" d="M67.3,97.2l2.1-0.7l-0.8-2.3l0.8-0.3l1.9,5.4l-0.8,0.3l-0.8-2.3l-2.1,0.7l0.8,2.3l-0.8,0.3l-1.9-5.4l0.8-0.3
				L67.3,97.2z"/>
			<path class="st0" d="M65.5,101.1l-3.4,0.8l-0.2-0.8l2.6-0.6l-0.4-1.6l-2.2,0.5l-0.2-0.7l2.2-0.5l-0.4-1.6l-2.6,0.6l-0.2-0.8
				l3.4-0.8L65.5,101.1z"/>
			<path class="st0" d="M60.2,102.3l-0.8,0.1l-2-3.5l-1.2,3.9l-0.8,0.1l-0.6-5.7l0.8-0.1l0.4,3.5l0,0l0.9-2.8l0.7-0.1l1.4,2.6l0,0
				l-0.4-3.5l0.8-0.1L60.2,102.3z"/>
			<path class="st0" d="M53.2,102.8l-3.5-0.1l0-0.8l2.7,0l0-1.6l-2.3,0l0-0.8l2.3,0l0-1.7l-2.7,0l0-0.8l3.5,0.1L53.2,102.8z"/>
		</g>
		<g>
			<path class="st0" d="M49,7.8l-1.8-0.7c0,0-0.1,0-0.1,0l-1.6,1.1c-0.1,0.1-0.2,0-0.2-0.1l0.1-1.9c0,0,0-0.1-0.1-0.1L43.7,5
				c-0.1-0.1-0.1-0.2,0-0.2l1.9-0.5c0,0,0.1,0,0.1-0.1l0.6-1.8c0-0.1,0.2-0.1,0.2,0l1.1,1.6c0,0,0.1,0.1,0.1,0.1l1.9,0
				c0.1,0,0.2,0.1,0.1,0.2l-1.2,1.5c0,0,0,0.1,0,0.1l0.6,1.9C49.1,7.8,49.1,7.9,49,7.8z"/>
		</g>
		<g>
			<path class="st0" d="M46.1,101.2l-1.9-0.1c0,0-0.1,0-0.1,0l-1.2,1.5c-0.1,0.1-0.2,0.1-0.2,0l-0.5-1.9c0,0,0-0.1-0.1-0.1l-1.8-0.7
				c-0.1,0-0.1-0.2,0-0.2l1.6-1c0,0,0.1-0.1,0.1-0.1l0.1-1.9c0-0.1,0.1-0.2,0.2-0.1l1.5,1.2c0,0,0.1,0,0.1,0l1.9-0.5
				c0.1,0,0.2,0.1,0.2,0.2l-0.7,1.8c0,0,0,0.1,0,0.1l1.1,1.6C46.3,101,46.2,101.2,46.1,101.2z"/>
		</g>
	</g>
</g>
</svg>
