<?xml version="1.0" encoding="utf-8"?>
<!-- Generator: Adobe Illustrator 24.0.2, SVG Export Plug-In . SVG Version: 6.00 Build 0)  -->
<svg version="1.1" id="Layer_1" xmlns="http://www.w3.org/2000/svg" xmlns:xlink="http://www.w3.org/1999/xlink" x="0px" y="0px"
	 viewBox="0 0 64 37" style="enable-background:new 0 0 64 37;" xml:space="preserve">
<style type="text/css">
	.st0{enable-background:new    ;}
	.st1{fill:#684F40;}
	.st2{fill:none;}
</style>
<g id="BAKERY">
	<g class="st0">
		<path class="st1" d="M1.23,21.84V1.48h3.87c0.85,0,1.57,0.14,2.17,0.43c0.6,0.29,1.09,0.67,1.47,1.14
			C9.13,3.53,9.4,4.07,9.57,4.69c0.16,0.62,0.25,1.26,0.25,1.93v0.74c0,0.55-0.04,1.02-0.12,1.4c-0.08,0.38-0.19,0.72-0.35,1
			c-0.29,0.53-0.75,0.99-1.35,1.37c0.62,0.32,1.08,0.8,1.38,1.43c0.29,0.63,0.44,1.49,0.44,2.57v1.14c0,1.79-0.39,3.17-1.18,4.12
			c-0.79,0.95-2.05,1.43-3.78,1.43H1.23z M3.88,4.22v5.61h1.2c0.88,0,1.48-0.24,1.78-0.73s0.46-1.2,0.46-2.13
			c0-0.92-0.17-1.6-0.51-2.06C6.47,4.45,5.86,4.22,4.98,4.22H3.88z M3.88,12.4v6.52h1.14c0.54,0,0.96-0.09,1.26-0.26
			c0.3-0.17,0.53-0.41,0.69-0.71c0.16-0.3,0.25-0.67,0.29-1.09c0.03-0.42,0.05-0.88,0.05-1.37c0-0.51-0.03-0.96-0.08-1.34
			c-0.05-0.38-0.16-0.71-0.31-0.97c-0.17-0.27-0.41-0.46-0.7-0.59c-0.3-0.12-0.69-0.19-1.17-0.19H3.88z"/>
		<path class="st1" d="M10.8,21.84l4.13-20.36h2.21l4.13,20.36h-2.65l-0.78-4.38h-3.61l-0.78,4.38H10.8z M17.35,14.72l-1.3-7.38H16
			l-1.3,7.38H17.35z"/>
		<path class="st1" d="M22.58,21.84V1.48h2.65v9.29h0.05l3.87-9.29h2.65l-3.61,8.15l4.29,12.21h-2.81l-3.02-9.04l-1.43,2.95v6.09
			H22.58z"/>
		<path class="st1" d="M33.65,21.84V1.48h7.9v2.75h-5.25v5.98h4.58v2.75h-4.58v5.98h5.25v2.92H33.65z"/>
		<path class="st1" d="M43.27,21.84V1.48h4.26c3.12,0,4.68,1.99,4.68,5.98c0,1.2-0.17,2.22-0.51,3.06
			c-0.34,0.84-0.93,1.52-1.78,2.03l2.86,9.29h-2.81l-2.47-8.69h-1.59v8.69H43.27z M45.93,4.22v6.35h1.51c0.47,0,0.84-0.07,1.12-0.21
			s0.49-0.35,0.65-0.61c0.14-0.27,0.23-0.6,0.29-0.99c0.05-0.39,0.08-0.84,0.08-1.36c0-0.52-0.03-0.97-0.08-1.36
			c-0.05-0.39-0.16-0.73-0.31-1.02c-0.33-0.53-0.95-0.8-1.87-0.8H45.93z"/>
		<path class="st1" d="M56.35,21.84v-8.61L52.71,1.48h2.81l2.13,8.09h0.05l2.13-8.09h2.81L59,13.23v8.61H56.35z"/>
	</g>
</g>
<g id="_x7E__EST_2014__x7E_">
	<rect x="5.8" y="29.8" class="st2" width="53" height="9.2"/>
	<g class="st0">
		<path class="st1" d="M17.25,34.3c-0.05,0.11-0.12,0.21-0.19,0.32c-0.08,0.1-0.17,0.2-0.27,0.28c-0.1,0.09-0.22,0.15-0.35,0.2
			c-0.13,0.05-0.28,0.08-0.44,0.08c-0.17,0-0.35-0.03-0.54-0.09s-0.38-0.14-0.57-0.24c-0.09-0.04-0.19-0.08-0.28-0.12
			c-0.09-0.04-0.18-0.08-0.27-0.12c-0.18-0.08-0.34-0.12-0.47-0.12c-0.1,0-0.19,0.02-0.27,0.06c-0.08,0.04-0.16,0.1-0.23,0.17
			c-0.07,0.07-0.14,0.14-0.2,0.23c-0.06,0.08-0.12,0.17-0.18,0.25l-0.36-0.64c0.05-0.11,0.12-0.21,0.19-0.31s0.17-0.2,0.27-0.29
			c0.1-0.08,0.22-0.14,0.35-0.2c0.13-0.05,0.28-0.07,0.44-0.07c0.17,0,0.35,0.03,0.54,0.09s0.38,0.14,0.57,0.23
			c0.09,0.04,0.19,0.08,0.28,0.12c0.09,0.04,0.18,0.08,0.27,0.12c0.18,0.08,0.34,0.12,0.47,0.12c0.1,0,0.19-0.02,0.28-0.06
			c0.08-0.04,0.16-0.1,0.23-0.17c0.07-0.07,0.14-0.15,0.19-0.23c0.03-0.05,0.06-0.09,0.09-0.13c0.03-0.04,0.06-0.08,0.09-0.13
			L17.25,34.3z"/>
		<path class="st1" d="M20.28,36.95v-7.12h3.04v0.96H21.3v2.09h1.76v0.96H21.3v2.09h2.02v1.02H20.28z"/>
		<path class="st1" d="M27.28,31.88h-1.02v-0.23c0-0.23-0.05-0.44-0.16-0.61c-0.11-0.17-0.3-0.25-0.56-0.25
			c-0.14,0-0.25,0.03-0.34,0.08c-0.09,0.05-0.16,0.12-0.21,0.2c-0.05,0.09-0.09,0.18-0.11,0.29s-0.03,0.22-0.03,0.34
			c0,0.14,0,0.26,0.02,0.35c0.01,0.09,0.03,0.18,0.07,0.25s0.1,0.14,0.18,0.19c0.08,0.05,0.18,0.11,0.31,0.16l0.78,0.31
			c0.23,0.09,0.41,0.19,0.55,0.31c0.14,0.12,0.25,0.25,0.33,0.41c0.07,0.16,0.12,0.34,0.15,0.54c0.03,0.2,0.04,0.43,0.04,0.69
			c0,0.3-0.03,0.58-0.09,0.83c-0.06,0.26-0.16,0.48-0.29,0.66c-0.14,0.19-0.32,0.33-0.55,0.44c-0.23,0.11-0.5,0.16-0.83,0.16
			c-0.25,0-0.48-0.04-0.69-0.13c-0.21-0.09-0.4-0.21-0.55-0.36s-0.27-0.33-0.36-0.54s-0.14-0.42-0.14-0.67v-0.38h1.02v0.32
			c0,0.19,0.06,0.36,0.17,0.51c0.11,0.15,0.29,0.22,0.56,0.22c0.17,0,0.31-0.03,0.4-0.08s0.17-0.12,0.23-0.21s0.08-0.21,0.1-0.33
			c0.01-0.13,0.01-0.28,0.01-0.43c0-0.19-0.01-0.34-0.02-0.46c-0.01-0.12-0.04-0.22-0.08-0.29c-0.05-0.07-0.11-0.13-0.19-0.18
			c-0.08-0.05-0.18-0.1-0.31-0.15l-0.73-0.3c-0.44-0.18-0.73-0.42-0.88-0.71c-0.15-0.3-0.23-0.67-0.23-1.12
			c0-0.27,0.04-0.52,0.11-0.76s0.18-0.45,0.33-0.62c0.14-0.17,0.32-0.31,0.54-0.42c0.22-0.1,0.47-0.15,0.77-0.15
			c0.25,0,0.48,0.05,0.69,0.14c0.21,0.09,0.39,0.22,0.54,0.37c0.31,0.32,0.46,0.69,0.46,1.1V31.88z"/>
		<path class="st1" d="M28.71,36.95v-6.16h-1.18v-0.96h3.38v0.96h-1.18v6.16H28.71z"/>
		<path class="st1" d="M33.08,36.95v-0.96l1.84-3.47c0.09-0.17,0.15-0.33,0.16-0.46s0.02-0.29,0.02-0.49c0-0.09,0-0.18,0-0.27
			c0-0.1-0.02-0.18-0.05-0.26c-0.03-0.07-0.08-0.13-0.15-0.18c-0.07-0.05-0.16-0.08-0.29-0.08c-0.15,0-0.27,0.04-0.36,0.13
			c-0.09,0.09-0.14,0.21-0.14,0.38v0.58h-1.02v-0.56c0-0.21,0.04-0.41,0.12-0.6c0.08-0.19,0.19-0.35,0.33-0.49
			c0.13-0.14,0.29-0.25,0.48-0.33c0.19-0.08,0.39-0.12,0.6-0.12c0.27,0,0.5,0.05,0.68,0.14c0.19,0.1,0.35,0.23,0.47,0.4
			c0.12,0.17,0.21,0.36,0.27,0.57c0.06,0.21,0.08,0.44,0.08,0.68c0,0.17,0,0.32-0.01,0.43c-0.01,0.12-0.02,0.23-0.04,0.33
			c-0.02,0.11-0.05,0.21-0.1,0.32s-0.11,0.24-0.19,0.39l-1.5,2.89h1.84v1.02H33.08z"/>
		<path class="st1" d="M36.8,31.3c0-0.24,0.04-0.45,0.12-0.64c0.08-0.19,0.2-0.35,0.33-0.48c0.14-0.13,0.3-0.24,0.49-0.31
			c0.18-0.07,0.38-0.1,0.58-0.1s0.39,0.04,0.58,0.1c0.18,0.07,0.34,0.17,0.48,0.31c0.14,0.13,0.25,0.29,0.33,0.48
			c0.08,0.19,0.12,0.4,0.12,0.64v4.18c0,0.24-0.04,0.45-0.12,0.64c-0.08,0.19-0.19,0.35-0.33,0.48c-0.14,0.13-0.3,0.23-0.48,0.3
			c-0.18,0.07-0.38,0.1-0.58,0.1s-0.39-0.03-0.58-0.1s-0.34-0.17-0.49-0.3c-0.14-0.13-0.25-0.29-0.33-0.48
			c-0.08-0.19-0.12-0.4-0.12-0.64V31.3z M37.82,35.48c0,0.15,0.05,0.27,0.14,0.36c0.09,0.1,0.21,0.15,0.36,0.15s0.27-0.05,0.36-0.15
			c0.09-0.1,0.14-0.22,0.14-0.36V31.3c0-0.15-0.05-0.27-0.14-0.36c-0.09-0.1-0.21-0.15-0.36-0.15s-0.27,0.05-0.36,0.15
			c-0.09,0.1-0.14,0.22-0.14,0.36V35.48z"/>
		<path class="st1" d="M41.73,36.95v-6.04l-1.02,0.75v-1.08l1.02-0.75h1.02v7.12H41.73z"/>
		<path class="st1" d="M46.02,36.95v-1.06h-2.03v-0.96l1.47-5.1h1.08l-1.53,5.1h1.01V32.9h1.02v2.03h0.49v0.96h-0.49v1.06H46.02z"/>
		<path class="st1" d="M54.79,34.3c-0.05,0.11-0.12,0.21-0.2,0.32c-0.08,0.1-0.17,0.2-0.26,0.28c-0.1,0.09-0.22,0.15-0.35,0.2
			c-0.13,0.05-0.28,0.08-0.44,0.08c-0.17,0-0.35-0.03-0.54-0.09s-0.38-0.14-0.57-0.24c-0.09-0.04-0.18-0.08-0.28-0.12
			c-0.09-0.04-0.18-0.08-0.27-0.12c-0.18-0.08-0.34-0.12-0.47-0.12c-0.1,0-0.19,0.02-0.27,0.06c-0.08,0.04-0.16,0.1-0.23,0.17
			c-0.07,0.07-0.14,0.14-0.2,0.23c-0.06,0.08-0.12,0.17-0.18,0.25l-0.36-0.64c0.05-0.11,0.12-0.21,0.19-0.31
			c0.08-0.1,0.17-0.2,0.27-0.29c0.1-0.08,0.21-0.14,0.34-0.2c0.13-0.05,0.28-0.07,0.45-0.07c0.17,0,0.35,0.03,0.54,0.09
			s0.38,0.14,0.57,0.23c0.09,0.04,0.19,0.08,0.28,0.12s0.18,0.08,0.28,0.12c0.18,0.08,0.34,0.12,0.47,0.12
			c0.1,0,0.19-0.02,0.28-0.06c0.08-0.04,0.16-0.1,0.23-0.17c0.07-0.07,0.14-0.15,0.19-0.23c0.03-0.05,0.06-0.09,0.09-0.13
			s0.06-0.08,0.09-0.13L54.79,34.3z"/>
	</g>
</g>
</svg>
