<?xml version="1.0" encoding="utf-8"?>
<!-- Generator: Adobe Illustrator 22.1.0, SVG Export Plug-In . SVG Version: 6.00 Build 0)  -->
<svg version="1.1" id="logo" xmlns="http://www.w3.org/2000/svg" xmlns:xlink="http://www.w3.org/1999/xlink" x="0px" y="0px"
	 viewBox="0 0 120 120" style="enable-background:new 0 0 120 120;" xml:space="preserve">
<style type="text/css">
	.st0{fill:#FFFFFF;}
</style>
<g id="bg">
	<circle class="st0" cx="60" cy="60" r="60"/>
</g>
<path id="logo_1_" d="M60,114C30.2,114,6,89.8,6,60C6,30.2,30.2,6,60,6c29.8,0,54,24.2,54,54C114,89.8,89.8,114,60,114z M60,9
	C31.9,9,9,31.9,9,60c0,28.1,22.9,51,51,51c28.1,0,51-22.9,51-51C111,31.9,88.1,9,60,9z M35.2,98.7L33,97.3L32,98l-1.1-0.7l5.2-3.2
	l1.1,0.7l-1.1,6l-1.1-0.8L35.2,98.7z M35.4,97.7l0.5-2.3l-1.9,1.3L35.4,97.7z M44.5,98.6l-2.4,5.1l-1-0.5L40.1,99l-1.4,3.1l-1.2-0.5
	l2.4-5.1l1,0.5l1.1,4.3l1.4-3.1L44.5,98.6z M45.9,99.2l2.4,0.7c0.6,0.2,1.1,0.4,1.5,0.8c0.4,0.4,0.6,0.8,0.8,1.2
	c0.1,0.5,0.1,1,0,1.5c-0.2,0.5-0.4,1-0.8,1.3c-0.4,0.3-0.8,0.5-1.3,0.6c-0.5,0.1-1.1,0.1-1.6-0.1l-2.4-0.7L45.9,99.2z M47.1,104.2
	c0.5,0.2,1,0.1,1.4-0.1c0.4-0.2,0.7-0.6,0.8-1.1c0.1-0.5,0.1-1-0.1-1.4c-0.2-0.4-0.6-0.7-1.2-0.8l-1.1-0.3l-0.9,3.3L47.1,104.2z
	 M59.9,107.1l0.1-3.4l-1.8,2.7l-0.6,0l-1.5-2.8l-0.1,3.3l-1.2,0l0.2-5.6l1.1,0l2,3.6l2.2-3.4l1.1,0l-0.2,5.6L59.9,107.1z
	 M64.7,106.5c-0.5-0.2-0.9-0.5-1.2-0.9c-0.3-0.4-0.5-0.9-0.6-1.4c-0.1-0.5,0-1.1,0.2-1.5c0.2-0.5,0.5-0.9,0.9-1.2
	c0.4-0.3,0.9-0.5,1.5-0.6c0.6-0.1,1.1,0,1.6,0.2c0.5,0.2,0.9,0.5,1.2,0.9c0.3,0.4,0.5,0.9,0.6,1.4c0.1,0.5,0,1.1-0.2,1.5
	c-0.2,0.5-0.5,0.9-0.9,1.2c-0.4,0.3-0.9,0.5-1.5,0.6C65.7,106.8,65.2,106.7,64.7,106.5z M67,105.3c0.2-0.2,0.4-0.4,0.5-0.7
	c0.1-0.3,0.1-0.6,0.1-1c0-0.3-0.2-0.6-0.4-0.9c-0.2-0.2-0.4-0.4-0.7-0.5c-0.3-0.1-0.6-0.1-0.9-0.1s-0.6,0.2-0.9,0.3
	c-0.2,0.2-0.4,0.4-0.5,0.7c-0.1,0.3-0.1,0.6-0.1,1c0,0.3,0.2,0.6,0.4,0.9c0.2,0.2,0.4,0.4,0.7,0.5c0.3,0.1,0.6,0.1,0.9,0.1
	C66.5,105.6,66.7,105.4,67,105.3z M74.7,104.7l-1.5-1.2l-0.1,0l-1.1,0.3l0.5,1.5l-1.2,0.4l-1.6-5.4l2.3-0.7c0.5-0.1,0.9-0.2,1.3-0.1
	c0.4,0.1,0.7,0.2,1,0.4c0.3,0.2,0.5,0.5,0.6,0.9c0.1,0.4,0.1,0.8,0,1.1c-0.1,0.3-0.3,0.6-0.6,0.9l1.7,1.4L74.7,104.7z M73.1,100.7
	c-0.2-0.1-0.6-0.1-0.9,0l-1,0.3l0.6,1.9l1-0.3c0.4-0.1,0.6-0.3,0.8-0.5s0.2-0.5,0.1-0.8C73.5,101,73.4,100.8,73.1,100.7z
	 M81.3,100.8l0.4,0.9l-3.9,1.8l-2.4-5.1l3.8-1.8l0.4,0.9L77,98.9l0.5,1.1l2.4-1.1l0.4,0.9l-2.4,1.1l0.5,1.2L81.3,100.8z M83.2,100.6
	c-0.2-0.1-0.4-0.2-0.5-0.4c-0.1-0.2-0.1-0.4-0.1-0.6c0.1-0.2,0.2-0.4,0.4-0.5c0.2-0.1,0.4-0.1,0.6-0.1c0.2,0,0.4,0.2,0.5,0.4
	c0.1,0.2,0.1,0.4,0.1,0.6s-0.2,0.4-0.4,0.5C83.6,100.7,83.4,100.7,83.2,100.6z M85.6,99.1c-0.2,0-0.4-0.2-0.5-0.3
	C85,98.6,85,98.4,85,98.2c0-0.2,0.2-0.4,0.3-0.5c0.2-0.1,0.4-0.2,0.6-0.1c0.2,0,0.4,0.1,0.5,0.3c0.1,0.2,0.2,0.4,0.1,0.6
	c0,0.2-0.1,0.4-0.3,0.5C86,99.1,85.9,99.2,85.6,99.1z M88,97.5c-0.2,0-0.4-0.1-0.5-0.3c-0.1-0.2-0.2-0.4-0.2-0.6
	c0-0.2,0.1-0.4,0.3-0.5c0.2-0.1,0.4-0.2,0.6-0.2c0.2,0,0.4,0.1,0.5,0.3c0.1,0.2,0.2,0.4,0.2,0.6c0,0.2-0.1,0.4-0.3,0.5
	C88.4,97.5,88.2,97.5,88,97.5z M34.4,26.8c-0.5,0.1-1,0-1.5-0.2c-0.5-0.2-0.9-0.5-1.2-1s-0.5-0.9-0.6-1.4c0-0.5,0-1,0.3-1.5
	c0.2-0.5,0.6-0.9,1-1.2c0.4-0.3,0.8-0.5,1.2-0.6c0.4-0.1,0.8-0.1,1.2,0l-0.2,1.1c-0.6-0.1-1.1,0-1.5,0.3c-0.3,0.2-0.5,0.4-0.6,0.7
	c-0.1,0.3-0.2,0.6-0.1,0.9s0.2,0.6,0.4,0.9c0.2,0.3,0.4,0.5,0.7,0.6c0.3,0.1,0.6,0.2,0.9,0.1c0.3,0,0.6-0.2,0.9-0.4
	c0.5-0.3,0.7-0.8,0.8-1.4l1.1,0.1c0,0.4-0.1,0.8-0.4,1.2c-0.2,0.4-0.5,0.7-0.9,1C35.5,26.6,35,26.8,34.4,26.8z M39.4,23.5
	c-0.5,0-1-0.2-1.4-0.4s-0.8-0.7-1-1.1c-0.3-0.5-0.4-1-0.3-1.5c0-0.5,0.2-1,0.5-1.4c0.3-0.4,0.7-0.8,1.2-1.1c0.5-0.3,1-0.4,1.6-0.4
	c0.5,0,1,0.2,1.4,0.4c0.4,0.3,0.8,0.6,1,1.1c0.2,0.5,0.4,1,0.3,1.5s-0.2,1-0.5,1.4s-0.7,0.8-1.2,1C40.5,23.4,39.9,23.6,39.4,23.5z
	 M41.2,21.6c0.2-0.3,0.3-0.5,0.3-0.9c0-0.3-0.1-0.6-0.2-0.9c-0.2-0.3-0.4-0.5-0.6-0.7c-0.3-0.2-0.5-0.3-0.8-0.3
	c-0.3,0-0.6,0.1-0.9,0.2c-0.3,0.2-0.5,0.4-0.7,0.6s-0.3,0.5-0.3,0.9c0,0.3,0.1,0.6,0.2,0.9s0.4,0.5,0.6,0.7c0.3,0.2,0.5,0.3,0.8,0.3
	s0.6-0.1,0.9-0.2C40.8,22,41,21.8,41.2,21.6z M45.7,20.7c-0.5-0.1-1-0.3-1.4-0.7c-0.4-0.3-0.7-0.8-0.8-1.3c-0.2-0.5-0.2-1-0.1-1.5
	c0.1-0.5,0.4-0.9,0.7-1.3s0.8-0.7,1.4-0.8c0.6-0.2,1.1-0.2,1.6-0.1c0.5,0.1,1,0.3,1.4,0.7c0.4,0.3,0.7,0.8,0.8,1.3
	c0.2,0.5,0.2,1,0.1,1.5c-0.1,0.5-0.4,0.9-0.7,1.3s-0.8,0.7-1.4,0.8C46.8,20.7,46.2,20.8,45.7,20.7z M47.8,19
	c0.2-0.2,0.3-0.5,0.4-0.8s0-0.6-0.1-1c-0.1-0.3-0.3-0.6-0.5-0.8c-0.2-0.2-0.5-0.4-0.8-0.4c-0.3-0.1-0.6,0-0.9,0.1s-0.6,0.3-0.8,0.5
	c-0.2,0.2-0.3,0.5-0.4,0.8s0,0.6,0.1,1c0.1,0.3,0.3,0.6,0.5,0.8c0.2,0.2,0.5,0.4,0.8,0.4c0.3,0.1,0.6,0,0.9-0.1
	C47.3,19.4,47.6,19.2,47.8,19z M53.1,16.9l-0.6,0.9l0.2,1.4l-1.3,0.2l-0.8-5.5l1.3-0.2l0.4,2.6l2.1-3l1.4-0.2l-1.9,2.8l2.9,2.7
	l-1.5,0.2L53.1,16.9z M62.3,16.2c0.2,0.2,0.3,0.5,0.3,0.9c0,0.5-0.2,0.9-0.6,1.1c-0.4,0.3-0.9,0.4-1.7,0.4l-2.9,0l0.1-5.6l2.7,0
	c0.7,0,1.2,0.2,1.6,0.4c0.4,0.3,0.5,0.6,0.5,1.1c0,0.3-0.1,0.5-0.2,0.7c-0.1,0.2-0.3,0.4-0.6,0.5C61.9,15.8,62.1,15.9,62.3,16.2z
	 M61,17.4c0.2-0.1,0.3-0.3,0.3-0.5c0-0.5-0.3-0.7-1-0.7l-1.5,0l0,1.4l1.5,0C60.5,17.6,60.8,17.5,61,17.4z M58.7,13.9l0,1.3l1.3,0
	c0.3,0,0.6,0,0.7-0.2c0.2-0.1,0.3-0.3,0.3-0.5s-0.1-0.4-0.2-0.5c-0.2-0.1-0.4-0.2-0.7-0.2L58.7,13.9z M64.9,18.5
	c-0.4-0.3-0.7-0.7-0.9-1.2s-0.2-1-0.2-1.5s0.3-1,0.6-1.4c0.3-0.4,0.7-0.7,1.2-0.9c0.5-0.2,1-0.2,1.6-0.1c0.6,0.1,1.1,0.3,1.5,0.6
	c0.4,0.3,0.7,0.7,0.9,1.2c0.2,0.5,0.2,1,0.2,1.5c-0.1,0.5-0.3,1-0.6,1.4S68.5,18.9,68,19c-0.5,0.2-1,0.2-1.6,0.1
	C65.8,19.1,65.3,18.9,64.9,18.5z M67.5,18c0.3-0.1,0.5-0.3,0.7-0.5s0.3-0.5,0.4-0.9s0-0.7-0.1-1s-0.3-0.5-0.5-0.7
	c-0.2-0.2-0.5-0.3-0.8-0.4c-0.3-0.1-0.6,0-0.9,0.1c-0.3,0.1-0.5,0.3-0.7,0.5c-0.2,0.2-0.3,0.5-0.4,0.9c-0.1,0.3,0,0.7,0.1,1
	c0.1,0.3,0.3,0.5,0.5,0.7s0.5,0.3,0.8,0.4S67.2,18.1,67.5,18z M71.6,19.9c-0.4-0.4-0.6-0.8-0.7-1.3c-0.1-0.5-0.1-1,0.1-1.5
	c0.2-0.5,0.5-0.9,0.8-1.3c0.4-0.3,0.8-0.5,1.4-0.6c0.5-0.1,1.1,0,1.6,0.1c0.6,0.2,1,0.5,1.4,0.9c0.4,0.4,0.6,0.8,0.7,1.3
	c0.1,0.5,0.1,1-0.1,1.5c-0.2,0.5-0.5,0.9-0.9,1.3c-0.4,0.3-0.9,0.5-1.4,0.6c-0.5,0.1-1.1,0-1.6-0.1S72,20.3,71.6,19.9z M74.3,19.8
	c0.3-0.1,0.6-0.2,0.8-0.4c0.2-0.2,0.4-0.5,0.5-0.8c0.1-0.3,0.1-0.6,0.1-1c-0.1-0.3-0.2-0.6-0.4-0.8c-0.2-0.2-0.5-0.4-0.8-0.5
	s-0.6-0.1-0.9-0.1c-0.3,0.1-0.6,0.2-0.8,0.4c-0.2,0.2-0.4,0.5-0.5,0.8c-0.1,0.3-0.1,0.6-0.1,1c0.1,0.3,0.2,0.6,0.4,0.8
	c0.2,0.2,0.5,0.4,0.8,0.5C73.7,19.9,74,19.9,74.3,19.8z M79.8,21.2l-1,0.3l-0.7,1.3L77,22.2l2.6-5l1.1,0.6l-1.2,2.3l3.4-1.2l1.3,0.7
	L81,20.8l0.7,3.9L80.4,24L79.8,21.2z M82.8,25.4c-0.3-0.3-0.4-0.7-0.5-1l0.9-0.5c0.1,0.3,0.2,0.6,0.5,0.8s0.4,0.5,0.7,0.7
	c0.3,0.2,0.6,0.3,0.8,0.3c0.2,0,0.4-0.1,0.5-0.2c0.1-0.1,0.1-0.2,0.1-0.4c0-0.1-0.1-0.3-0.2-0.4c-0.1-0.1-0.2-0.3-0.4-0.5
	c-0.3-0.3-0.5-0.6-0.7-0.9c-0.2-0.2-0.3-0.5-0.3-0.8s0.1-0.6,0.3-0.9c0.2-0.3,0.4-0.5,0.7-0.6c0.3-0.1,0.6-0.1,1,0
	c0.4,0.1,0.8,0.3,1.2,0.6c0.3,0.2,0.6,0.4,0.8,0.7c0.2,0.3,0.4,0.5,0.5,0.8l-0.9,0.6c-0.3-0.5-0.6-1-1-1.3c-0.3-0.2-0.5-0.3-0.8-0.3
	c-0.2,0-0.4,0.1-0.5,0.2c-0.1,0.2-0.1,0.3,0,0.5s0.3,0.4,0.6,0.8c0.3,0.3,0.5,0.6,0.7,0.9c0.2,0.2,0.3,0.5,0.3,0.8s-0.1,0.6-0.3,0.9
	c-0.2,0.3-0.4,0.4-0.7,0.6c-0.3,0.1-0.6,0.1-1,0s-0.8-0.3-1.2-0.6C83.3,26,83,25.7,82.8,25.4z M33.6,34C56,14,89.1,25.8,96.4,53.2
	C92.4,23.3,53.4,11.3,33.6,34z M46.5,39.7C46.5,39.7,46.5,39.7,46.5,39.7C46.6,39.7,46.6,39.7,46.5,39.7L46.5,39.7z M33.7,60.4
	c-2,0-4.6,1.6-4.9,4.3h0.4c0.9-3.7,5.2-5.1,5.4-1.7c0.1,3.7-3.4,10.8-11,10.8c-2.9,0-4.5-1.9-4.5-5.4c0-2.9,1-6.4,2.7-10
	c1,0.2,2.1,0.3,3.4,0.3c8.3,0,15.2-2.9,19.8-6.5c4.3-3.2,6.7-6.5,6.7-9c0-2.2-2-3.6-5.1-3.6c-1,0-2.1,0.1-3.1,0.3
	c-1.8,0.3-3.8,1-6.2,2c-3,1.3-5.8,3.1-8.5,5.1c-0.9-0.1-1.8-0.2-2.8-0.2c-6.4,0-9.9,3.3-9.9,6.4c0,1.8,1.1,3.3,3.1,4.3
	c-2,3.4-3.1,6.8-3.1,9.8c0,4.4,2.6,6.9,7.3,6.9C34.4,74.3,41,60.4,33.7,60.4z M30,47.7c4.3,0.9,7.7,2.9,9.6,5.7l0.2-0.3
	c-1.8-2.7-5.2-4.8-9.4-5.8c2.8-2.4,5.8-4.2,8.9-5.4c2.8-1.1,5.4-1.7,7.5-1.7c2.2,0,3.3,0.7,3.3,2.1c0,0.4-0.1,1.1-0.4,1.7h0
	C49,46,47,48.4,43.6,51.2c-4.8,3.8-11.5,7.2-18.4,7.2c-1.2,0-2.3-0.1-3.3-0.3C23.9,54.3,26.7,50.7,30,47.7z M16.7,53.6
	c0-2.7,3.3-6.2,9.5-6.2c0.7,0,1.3,0,2,0.1c-3.6,2.9-6.6,6.3-8.7,9.7C17.7,56.4,16.7,55.1,16.7,53.6z M61.9,53.1
	c0.6,0.1,1.4-0.5,1.8-1.4c0.4-0.9,0.2-1.7-0.5-1.7c-0.6,0-1.4,0.6-1.8,1.4C61.1,52.3,61.3,53.1,61.9,53.1z M93.2,75.8
	c0,0.1-0.1,0.2-0.1,0.2c-0.3,0.4-0.6,0.8-0.9,1.2c-1.6,1.7-4.4,2.6-8,2.6c-6.2,0-12.1-6.3-18.1-7.8c0.3-1.2,0.6-2.5,0.6-4
	c0-4.1-0.7-8-0.3-10l0.1-0.7c0,0,0-0.1,0-0.1c0.6-1.1,2-1.7,2-2.4c0-0.5-0.2-1-0.8-1l-0.3,0c-0.9,0.4-0.6,1.8-1.2,3.1
	c-1,1.7-2.2,3.2-4.3,5.9h0c-3,4.2-7.6,8.7-10.8,8.7c-0.1,0-0.1,0-0.1-0.1c0-0.8,2.5-4,5.4-7.8c1.9-2.6,4.2-5.5,5.9-8.3
	c-1,1.1-2.5,1.6-2.8,0.6c-2.4,3.2-3,3.9-4.4,5.9c-0.5,0.7-1,1.4-1.6,2c-3.1,3.9-7.6,7.7-9.2,7.7l0,0c-0.1,0-0.1,0-0.1-0.1
	c0-0.8,2.5-4,5.4-7.8c1.9-2.6,4.2-5.5,6-8.1h-0.4c-0.9,1-2.2,1.3-2.4,0.4c-2.4,3.2-3,3.9-4.4,5.9c-0.6,0.8-1.1,1.5-1.7,2.2
	c-3.2,4-7.5,7.5-9,7.5c-0.1,0-0.1,0-0.1-0.1c0-0.8,2.5-4,5.4-7.8c1.9-2.6,4.2-5.5,6-8.1h-0.4c-0.9,1-2.2,1.3-2.4,0.4
	c-2.4,3.2-3,3.9-4.4,5.9c-2.6,3.4-5.2,6.7-5.2,8.6c0,1,0.5,1.6,1.3,1.6c1.2,0,4-2,6.8-4.8c-0.9,1.4-1.3,2.4-1.3,3.2
	c0,1,0.5,1.6,1.3,1.6c1.3,0,4.1-2,6.7-4.7c-0.8,1.2-1.2,2.3-1.2,3.1c0,1,0.5,1.6,1.3,1.6c3.5,0,8.3-4.9,11.4-9.2h0
	c1.2-1.4,2.3-2.9,3.2-4.3c-0.8,4.2-1,9.1-2.2,12.9c-1-0.1-2-0.2-3-0.2c-4.6,0-8.3,1.8-8.3,4.2c0,5.1,10.6,5.2,13.6-2.7
	c6.1,2,12.2,9.3,18.4,9.3c2.1,0,4-0.5,5.5-1.5c-2.5,3.2-5.2,6-8.7,8.4c-6,4-12.9,6.2-20.1,6.4C49.1,96,38.3,90.8,30.4,82.2
	C37.5,92.7,49,98.8,61.8,98.4c13.5-0.5,25.8-9.3,31.3-21.5c0.2-0.3,0.3-0.6,0.5-1H93.2z M55.9,78.5L55.9,78.5
	c-2.3,0-2.7-1.7-2.6-2.9c0.2-2.1,3.2-3.7,7.1-3.7c1,0,1.9,0.1,2.8,0.2C61.8,76.2,59.1,78.5,55.9,78.5z M79.6,53.1
	c0.6,0.1,1.4-0.5,1.8-1.4c0.4-0.9,0.2-1.7-0.5-1.7c-0.6,0-1.4,0.6-1.8,1.4C78.8,52.3,79,53.1,79.6,53.1z M108.3,62.9
	c-3.1,4.1-9.6,8.8-12.6,8.8c-0.2,0-0.4-0.1-0.4-0.5c0-1.3,1.6-4.5,3.9-7.6c1.3-0.1,3.2-0.6,4.8-1.4c4.3-2.2,6-6.1,2.7-6.1
	c-3.6,0-7.5,3.2-10.1,6.8l0,0c-3.3,4.6-7.7,8.7-9.4,8.7c-0.1,0-0.1,0-0.1-0.1c0-0.8,2.6-4,5.5-7.8c1.5-2,2.3-3.9,2.3-5.3
	c0-1.3-0.9-2.2-2.1-2.2c-0.4,0-0.9,0.1-1.3,0.3c-1.3,0.7-2.9,2.3-4.5,4.3c0.5-1,0.9-1.9,0.9-2.6c0-1.2-0.7-2-1.7-2
	c-0.1,0-0.2,0-0.4,0c-0.8,0.2-3.1,2.6-6.2,6.7h0c-3,4.2-7.6,8.7-10.8,8.7c-0.1,0-0.1,0-0.1-0.1c0-0.8,2.5-4,5.4-7.8
	c1.9-2.6,4.2-5.5,5.9-8.3c-1,1.1-2.5,1.6-2.8,0.6c-2.4,3.2-3,3.9-4.4,5.9c-2.6,3.4-5.2,6.7-5.2,8.6c0,1,0.5,1.6,1.3,1.6
	c3.5,0,8.3-4.9,11.4-9.2h0c3.1-4,5.2-6.2,5.8-6.2c0.1,0,0.2,0.1,0.2,0.5c0,2.1-4,7.3-8.9,14.9c0.7-0.3,2.5-0.2,2.4,0.2
	C82.1,69,88.4,58.8,91.7,57c0.3-0.1,0.7-0.2,0.9-0.2c0.5,0,0.8,0.2,0.8,0.8c0,1-1.1,3-2.8,5.2c-2.4,3.2-4.6,6.1-4.6,7.9
	c0,1,0.5,1.6,1.3,1.6c1.6,0,4.8-2.9,7.6-6.3c-0.6,1.3-1,2.6-1,3.7c0,0.7,0.2,2.7,1.7,2.7c3.2,0,10.1-5.1,13.2-9.3H108.3z
	 M100.8,61.4c2.5-3.1,4.6-4.9,5.9-4.9l0,0c1.4,0,0.4,3.4-2.9,5.2c-1.3,0.7-3,1.2-4.3,1.4C99.9,62.5,100.3,62,100.8,61.4z"/>
<g>
</g>
<g>
</g>
<g>
</g>
<g>
</g>
<g>
</g>
<g>
</g>
<g>
</g>
<g>
</g>
<g>
</g>
<g>
</g>
<g>
</g>
<g>
</g>
<g>
</g>
<g>
</g>
<g>
</g>
</svg>
