<?xml version="1.0" encoding="utf-8"?>
<!-- Generator: Adobe Illustrator 24.0.2, SVG Export Plug-In . SVG Version: 6.00 Build 0)  -->
<svg version="1.1" id="Layer_1" xmlns="http://www.w3.org/2000/svg" xmlns:xlink="http://www.w3.org/1999/xlink" x="0px" y="0px"
	 viewBox="0 0 300 300" style="enable-background:new 0 0 300 300;" xml:space="preserve">
<style type="text/css">
	.st0{fill:#FFFFFF;}
</style>
<g>
	<path class="st0" d="M8.16,9.76H6.4v5.25H4.06V9.76h-1.9V7.58h1.9V5.94c0-0.63,0.12-1.16,0.35-1.59s0.57-0.77,1-1
		S6.33,3.01,6.9,3.01c0.25,0,0.52,0.01,0.8,0.04s0.5,0.05,0.66,0.08l0.23,0.02V5H7.65C7.21,5,6.89,5.12,6.7,5.34S6.4,5.85,6.4,6.17
		v1.41h2.09L8.16,9.76z"/>
</g>
<g>
	<path class="st0" d="M36.57,6.47c0.02,0.06,0.02,0.16,0.02,0.3c0,0.83-0.16,1.65-0.47,2.47s-0.75,1.57-1.32,2.25
		s-1.31,1.23-2.21,1.65s-1.91,0.63-3,0.63c-1.38,0-2.63-0.37-3.77-1.1c0.17,0.02,0.37,0.02,0.59,0.02c1.14,0,2.16-0.35,3.07-1.05
		c-0.55,0-1.03-0.16-1.44-0.48s-0.7-0.72-0.86-1.21c0.16,0.02,0.3,0.02,0.45,0.02c0.22,0,0.44-0.02,0.66-0.07
		c-0.38-0.08-0.71-0.23-1.01-0.47s-0.53-0.52-0.7-0.86S26.3,7.89,26.3,7.5V7.45c0.34,0.2,0.71,0.31,1.1,0.33
		c-0.73-0.5-1.1-1.19-1.1-2.06c0-0.44,0.12-0.85,0.35-1.24c0.61,0.77,1.36,1.38,2.24,1.83s1.82,0.7,2.82,0.75
		c-0.03-0.19-0.05-0.38-0.05-0.56c0-0.67,0.24-1.25,0.71-1.73s1.05-0.73,1.72-0.73c0.72,0,1.32,0.26,1.8,0.77
		C36.48,4.7,37,4.5,37.48,4.22c-0.19,0.58-0.55,1.03-1.08,1.36c0.47-0.06,0.94-0.2,1.41-0.4C37.47,5.68,37.05,6.11,36.57,6.47z"/>
</g>
<g>
	<path class="st0" d="M61.53,13.76c0,0.11-0.04,0.2-0.11,0.28s-0.16,0.12-0.27,0.12h-1.13c-0.11,0-0.2-0.04-0.27-0.11
		s-0.11-0.15-0.11-0.25c-0.09-2.25-0.93-4.17-2.52-5.75s-3.5-2.43-5.75-2.52c-0.09,0-0.18-0.04-0.25-0.11s-0.11-0.16-0.11-0.27V4.03
		c0-0.11,0.04-0.2,0.12-0.27s0.17-0.11,0.28-0.11c1.34,0.05,2.63,0.35,3.86,0.9s2.29,1.28,3.19,2.17s1.62,1.95,2.17,3.18
		S61.48,12.42,61.53,13.76z M58.15,13.76c0,0.11-0.04,0.2-0.11,0.28s-0.16,0.12-0.27,0.12h-1.13c-0.11,0-0.2-0.04-0.27-0.11
		s-0.11-0.15-0.11-0.25c-0.09-1.31-0.61-2.43-1.54-3.36S52.69,9,51.38,8.91c-0.09,0-0.18-0.04-0.25-0.11s-0.11-0.16-0.11-0.27V7.41
		c0-0.11,0.04-0.2,0.12-0.27s0.17-0.11,0.28-0.11c1.81,0.11,3.36,0.8,4.64,2.09S58.04,11.95,58.15,13.76z M53.59,11.59
		c0.29,0.29,0.43,0.64,0.43,1.05s-0.14,0.77-0.43,1.07s-0.64,0.45-1.05,0.45s-0.77-0.15-1.07-0.45s-0.45-0.65-0.45-1.07
		s0.15-0.77,0.45-1.05s0.65-0.43,1.07-0.43S53.3,11.3,53.59,11.59z"/>
</g>
<g>
	<path class="st0" d="M85.16,4.79c1.13,1.13,1.7,2.5,1.7,4.11s-0.57,2.98-1.7,4.11s-2.5,1.7-4.11,1.7c-0.59,0-1.16-0.09-1.71-0.26
		c0.38-0.63,0.61-1.13,0.7-1.52l0.38-1.38c0.09,0.19,0.27,0.34,0.52,0.47s0.52,0.19,0.82,0.19c0.86,0,1.57-0.35,2.14-1.04
		s0.86-1.55,0.86-2.57c0-0.95-0.34-1.75-1.03-2.39s-1.54-0.96-2.55-0.96c-1.19,0-2.12,0.34-2.8,1.03s-1.02,1.52-1.02,2.48
		c0,0.45,0.11,0.9,0.33,1.35s0.5,0.75,0.84,0.9c0.11,0.05,0.17,0.02,0.19-0.07c0.02-0.03,0.04-0.14,0.08-0.32s0.07-0.29,0.08-0.34
		c0.02-0.06,0-0.12-0.05-0.16c-0.28-0.36-0.42-0.8-0.42-1.34c0-0.67,0.24-1.26,0.71-1.77s1.11-0.76,1.91-0.76
		c0.72,0,1.3,0.22,1.76,0.67s0.68,1.01,0.68,1.7c0,0.52-0.08,0.98-0.25,1.38s-0.39,0.72-0.67,0.95s-0.59,0.34-0.91,0.34
		c-0.3,0-0.53-0.11-0.7-0.32s-0.23-0.46-0.16-0.74c0.03-0.16,0.09-0.38,0.19-0.66s0.16-0.53,0.21-0.74s0.07-0.39,0.07-0.55
		c0-0.14-0.02-0.27-0.07-0.4s-0.13-0.22-0.25-0.29S80.67,7.5,80.51,7.5c-0.3,0-0.55,0.13-0.75,0.4s-0.3,0.6-0.3,1.01
		c0,0.06,0,0.13,0.01,0.2s0.02,0.13,0.02,0.19s0.02,0.11,0.04,0.16s0.03,0.1,0.04,0.13s0.02,0.06,0.04,0.09s0.02,0.05,0.02,0.07
		l0.02,0.02c-0.39,1.61-0.63,2.57-0.7,2.88c-0.08,0.39-0.08,0.95,0,1.66c-1.11-0.42-2-1.13-2.68-2.11s-1.02-2.09-1.02-3.3
		c0-1.61,0.57-2.98,1.7-4.11s2.5-1.7,4.11-1.7S84.03,3.66,85.16,4.79z"/>
</g>
<g>
	<path class="st0" d="M103.72,5.44c-0.34,0-0.64-0.13-0.89-0.38s-0.38-0.55-0.38-0.89s0.13-0.64,0.38-0.89s0.55-0.38,0.89-0.38
		c0.22,0,0.43,0.05,0.62,0.16s0.35,0.26,0.47,0.46s0.18,0.41,0.18,0.63s-0.06,0.44-0.18,0.63s-0.27,0.35-0.47,0.47
		S103.94,5.44,103.72,5.44z M104.8,13.41h-2.18V6.4h2.18V13.41z M112.95,13.41h-2.18V9.99c0-0.27-0.01-0.48-0.02-0.64
		s-0.05-0.35-0.12-0.56s-0.18-0.37-0.34-0.48s-0.38-0.16-0.64-0.16c-0.52,0-0.86,0.16-1.04,0.49s-0.27,0.77-0.27,1.31v3.47h-2.18
		V6.4h2.11v0.96h0.02c0.16-0.31,0.41-0.58,0.77-0.81s0.79-0.34,1.29-0.34c0.53,0,0.97,0.08,1.32,0.25s0.62,0.41,0.8,0.73
		s0.3,0.67,0.38,1.04s0.11,0.82,0.11,1.34V13.41z"/>
</g>
</svg>
