<?xml version="1.0" standalone="no"?>
<!DOCTYPE svg PUBLIC "-//W3C//DTD SVG 20010904//EN"
 "http://www.w3.org/TR/2001/REC-SVG-20010904/DTD/svg10.dtd">
<svg version="1.0" xmlns="http://www.w3.org/2000/svg"
 width="2400.000000pt" height="2400.000000pt" viewBox="0 0 2400.000000 2400.000000"
 preserveAspectRatio="xMidYMid meet">
<metadata>
Created by potrace 1.11, written by Peter Selinger 2001-2013
</metadata>
<g transform="translate(0.000000,2400.000000) scale(0.100000,-0.100000)"
fill="#000000" stroke="none">
<path d="M11788 20015 c-2 -1 -73 -6 -158 -9 -85 -4 -171 -9 -190 -11 -19 -2
-72 -6 -117 -10 -46 -3 -93 -8 -105 -10 -13 -2 -54 -6 -93 -10 -38 -3 -95 -10
-125 -15 -30 -5 -77 -11 -105 -14 -27 -3 -59 -8 -70 -10 -11 -2 -56 -9 -100
-16 -44 -7 -89 -14 -100 -17 -11 -2 -31 -6 -45 -8 -78 -11 -460 -95 -550 -120
-8 -2 -64 -17 -125 -34 -205 -55 -401 -118 -720 -231 -360 -128 -963 -416
-1278 -611 -43 -27 -81 -49 -83 -49 -8 0 -318 -203 -439 -288 -115 -81 -314
-231 -401 -303 -23 -19 -57 -46 -76 -61 -19 -15 -46 -37 -60 -50 -14 -13 -47
-42 -74 -65 -50 -42 -60 -51 -194 -171 -100 -90 -434 -424 -542 -542 -439
-482 -842 -1048 -1150 -1615 -80 -148 -251 -493 -297 -600 -64 -150 -66 -153
-101 -245 -37 -98 -43 -114 -59 -154 -34 -85 -167 -499 -186 -577 -2 -10 -17
-66 -34 -126 -26 -94 -38 -141 -56 -223 -16 -70 -47 -217 -51 -234 -2 -11 -6
-32 -9 -46 -2 -14 -7 -41 -10 -60 -3 -19 -8 -42 -10 -50 -2 -8 -7 -35 -10 -60
-4 -25 -11 -67 -16 -95 -6 -27 -12 -68 -15 -90 -2 -22 -7 -56 -10 -75 -7 -48
-12 -86 -19 -145 -3 -27 -8 -66 -11 -85 -2 -19 -6 -60 -9 -90 -2 -30 -7 -80
-10 -110 -4 -50 -9 -124 -20 -305 -2 -33 -4 -153 -6 -267 -1 -140 -6 -208 -13
-211 -6 -2 -656 -3 -1444 -3 l-1432 1 0 -400 c-1 -3375 1 -5349 4 -5353 3 -2
1228 -5 2723 -5 1495 1 2725 -2 2734 -6 9 -3 52 -38 95 -78 140 -126 343 -294
521 -429 28 -21 66 -50 84 -64 57 -44 160 -116 334 -233 520 -349 979 -588
1590 -827 11 -4 34 -13 50 -20 127 -53 668 -222 785 -245 8 -2 35 -8 60 -15
25 -7 52 -14 60 -15 8 -2 76 -17 150 -33 74 -16 151 -33 170 -36 19 -3 46 -8
60 -11 64 -13 249 -44 305 -50 28 -4 57 -8 65 -10 8 -3 57 -9 108 -15 52 -6
108 -12 125 -15 54 -7 124 -14 327 -30 324 -26 968 -26 1280 0 25 2 77 6 115
9 39 3 88 8 110 10 22 3 69 8 105 11 69 7 82 8 205 25 108 15 116 16 225 35
52 8 109 17 127 19 18 3 40 7 50 10 10 3 35 7 55 10 54 8 292 62 451 102 282
71 762 226 952 309 17 7 85 36 151 63 630 263 1292 659 1874 1120 63 51 124
100 136 109 11 10 41 34 65 55 24 20 55 46 69 58 54 47 155 136 183 161 l29
26 2669 0 c1469 1 2672 3 2675 5 6 7 6 5740 -1 5746 -3 3 -627 6 -1387 6
l-1382 1 -2 160 c-1 147 -11 413 -19 510 -2 22 -6 75 -9 118 -4 43 -8 93 -10
110 -2 18 -7 61 -11 97 -4 36 -8 76 -10 90 -2 14 -7 48 -10 76 -3 28 -7 60 -9
71 -3 11 -7 44 -11 74 -4 30 -8 56 -10 59 -2 3 -6 29 -10 59 -4 30 -8 61 -10
70 -75 374 -135 631 -192 816 -61 199 -116 373 -128 400 -7 17 -34 89 -60 160
-26 72 -53 144 -60 160 -7 17 -46 107 -85 200 -71 167 -250 540 -328 682 -53
96 -153 268 -174 301 -10 15 -21 34 -25 42 -29 65 -434 649 -518 747 -5 7 -14
18 -20 25 -67 87 -219 268 -334 398 -76 86 -459 472 -542 545 -151 136 -211
188 -284 249 -44 37 -87 73 -95 79 -8 7 -38 30 -65 53 -284 232 -788 571
-1084 731 -36 19 -102 55 -146 80 -159 88 -456 229 -710 338 -62 27 -263 105
-350 135 -106 38 -293 100 -315 106 -8 2 -67 19 -130 39 -153 47 -350 100
-410 111 -14 3 -33 7 -42 10 -9 3 -25 6 -35 8 -10 2 -36 9 -58 14 -39 11 -175
39 -225 48 -14 2 -36 7 -50 9 -14 3 -38 8 -55 11 -35 6 -131 23 -160 28 -22 4
-104 16 -150 22 -146 19 -205 26 -235 29 -19 2 -57 6 -85 10 -53 6 -107 10
-245 20 -47 4 -107 8 -135 11 -54 5 -722 13 -727 9z"/>
</g>
</svg>
